<?xml version="1.0" encoding="UTF-8"?>
<svg xmlns="http://www.w3.org/2000/svg" viewBox="0 0 3 2" width="900" height="600">
  <!-- Syrian Independence Flag (green-white-black with three red stars) -->
  <!-- Stripes -->
  <rect width="3" height="0.6666667" y="0" fill="#007A3D"/>
  <rect width="3" height="0.6666667" y="0.6666667" fill="#FFFFFF"/>
  <rect width="3" height="0.6666667" y="1.3333334" fill="#000000"/>
  <!-- Star symbol -->
  <g fill="#CE1126">
    <g transform="translate(0.5,1)">
      <polygon points="0.000000,-0.220000 0.049393,-0.067984 0.209232,-0.067984 0.079920,0.025967 0.129313,0.177984 0.000000,0.084033 -0.129313,0.177984 -0.079920,0.025967 -0.209232,-0.067984 -0.049393,-0.067984"/>
    </g>
    <g transform="translate(1.5,1)">
      <polygon points="0.000000,-0.220000 0.049393,-0.067984 0.209232,-0.067984 0.079920,0.025967 0.129313,0.177984 0.000000,0.084033 -0.129313,0.177984 -0.079920,0.025967 -0.209232,-0.067984 -0.049393,-0.067984"/>
    </g>
    <g transform="translate(2.5,1)">
      <polygon points="0.000000,-0.220000 0.049393,-0.067984 0.209232,-0.067984 0.079920,0.025967 0.129313,0.177984 0.000000,0.084033 -0.129313,0.177984 -0.079920,0.025967 -0.209232,-0.067984 -0.049393,-0.067984"/>
    </g>
  </g>
</svg>
