<?xml version="1.0" encoding="UTF-8" standalone="no"?>
<!-- Created with Inkscape (http://www.inkscape.org/) -->

<svg
   version="1.1"
   id="svg1"
   width="1600"
   height="960"
   viewBox="0 0 1600 960"
   sodipodi:docname="Syrian Arab Republic.pdf"
   xmlns:inkscape="http://www.inkscape.org/namespaces/inkscape"
   xmlns:sodipodi="http://sodipodi.sourceforge.net/DTD/sodipodi-0.dtd"
   xmlns="http://www.w3.org/2000/svg"
   xmlns:svg="http://www.w3.org/2000/svg">
  <defs
     id="defs1" />
  <sodipodi:namedview
     id="namedview1"
     pagecolor="#ffffff"
     bordercolor="#000000"
     borderopacity="0.25"
     inkscape:showpageshadow="2"
     inkscape:pageopacity="0.0"
     inkscape:pagecheckerboard="0"
     inkscape:deskcolor="#d1d1d1">
    <inkscape:page
       x="0"
       y="0"
       inkscape:label="1"
       id="page1"
       width="1600"
       height="960"
       margin="0"
       bleed="0" />
  </sodipodi:namedview>
  <g
     id="layer-MC0"
     inkscape:groupmode="layer"
     inkscape:label="Layer 1">
    <path
       id="path1"
       d="M 0,0 H 1200 V 360 H 0 Z"
       style="fill:#000000;fill-opacity:1;fill-rule:nonzero;stroke:none"
       transform="matrix(1.3333333,0,0,-1.3333333,0,960)" />
    <path
       id="path2"
       d="M 0,360 H 1200 V 720 H 0 Z"
       style="fill:#009000;fill-opacity:1;fill-rule:nonzero;stroke:none"
       transform="matrix(1.3333333,0,0,-1.3333333,0,960)" />
    <path
       id="path3"
       d="M 0,240 H 1200 V 479.999 H 0 Z"
       style="fill:#ffffff;fill-opacity:1;fill-rule:nonzero;stroke:none"
       transform="matrix(1.3333333,0,0,-1.3333333,0,960)" />
    <path
       id="path4"
       d="M 0,0 17.869,-55.406 76.085,-55.279 28.912,-89.394 47.023,-144.721 0,-110.4 l -47.023,-34.321 18.111,55.327 -47.173,34.115 58.216,-0.127 z"
       style="fill:#c70000;fill-opacity:1;fill-rule:evenodd;stroke:none"
       transform="matrix(1.3333333,0,0,-1.3333333,350.2344,373.33333)" />
    <path
       id="path5"
       d="M 0,0 17.869,-55.406 76.084,-55.279 28.912,-89.394 47.023,-144.721 0,-110.4 l -47.023,-34.321 18.111,55.327 -47.172,34.115 58.215,-0.127 z"
       style="fill:#c70000;fill-opacity:1;fill-rule:evenodd;stroke:none"
       transform="matrix(1.3333333,0,0,-1.3333333,1249.7656,373.33333)" />
    <path
       id="path6"
       d="M 0,0 17.869,-55.406 76.084,-55.279 28.912,-89.394 47.023,-144.721 0,-110.4 l -47.023,-34.321 18.111,55.327 -47.172,34.115 58.215,-0.127 z"
       style="fill:#c70000;fill-opacity:1;fill-rule:evenodd;stroke:none"
       transform="matrix(1.3333333,0,0,-1.3333333,800,373.33333)" />
  </g>
</svg>
