<svg xmlns="http://www.w3.org/2000/svg" xmlns:xlink="http://www.w3.org/1999/xlink" id="flag-icon-css-lk" width="512" height="512">
  <path fill="#ffc700" d="M0 0h512v512H0z"/>
  <path fill="#ff8e00" d="M21.3 256L91.4 21.3h70.1v469.4h-70z"/>
  <path fill="#009000" d="M21.3 21.3h70.1v469.4h-70z"/>
  <path fill="#c70000" d="M182.7 21.3h308v469.4h-308z"/>
  <g transform="translate(-1.5580 -7.8745) scale(0.319475 0.319475)">
    <path
         id="path58"
         d="m 0,0 c 0,0 -6.62,13.817 -13.934,19.446 -10.836,8.341 -33.055,7.738 -42.486,17.469 -11.3,11.475 0.877,26.636 0.775,27.952 l -0.619,8.006 c 0,0 7.619,0.094 10.827,0.607 4.824,0.771 6.706,4.795 15.687,4.197 C -7.168,76.174 -8.079,55.319 -6.801,37.497 -5.667,30.711 -3.043,21.863 -1.552,15.079 -0.273,9.261 0,0 0,0 Z"
         style="fill:#ffc700;fill-opacity:1;fill-rule:nonzero;stroke:none"
         transform="matrix(1.3333333,0,0,-1.3333333,669.67347,203.09093)" />
    <path
         id="path59"
         d="m 0,0 c 0,0 -6.62,13.817 -13.934,19.446 -10.836,8.341 -33.055,7.738 -42.486,17.469 -11.3,11.475 0.877,26.636 0.775,27.952 l -0.619,8.006 c 0,0 7.619,0.094 10.827,0.607 4.824,0.771 6.706,4.795 15.687,4.197 C -7.168,76.174 -8.079,55.319 -6.801,37.497 -5.667,30.711 -3.043,21.863 -1.552,15.079 -0.273,9.261 0,0 0,0 Z"
         style="fill:none;stroke:#000000;stroke-width:2.096;stroke-linecap:butt;stroke-linejoin:miter;stroke-miterlimit:4;stroke-dasharray:none;stroke-opacity:1"
         transform="matrix(1.3333333,0,0,-1.3333333,669.67347,203.09093)" />
  </g>
  <g transform="translate(-1.4580 211.7399) scale(0.319475 0.319475)">
    <path
         id="path8"
         d="m 0,0 c 0,0 -6.62,-13.817 -13.934,-19.446 -10.836,-8.341 -33.055,-7.738 -42.486,-17.469 -11.299,-11.475 0.877,-26.636 0.775,-27.952 l -0.619,-8.006 c 0,0 7.619,-0.094 10.827,-0.607 4.824,-0.771 6.706,-4.795 15.687,-4.197 22.582,1.502 21.671,22.358 22.949,40.18 1.134,6.786 3.758,15.634 5.249,22.418 C -0.273,-9.261 0,0 0,0 Z"
         style="fill:#ffc700;fill-opacity:1;fill-rule:nonzero;stroke:none"
         transform="matrix(1.3333333,0,0,-1.3333333,669.67333,761.31293)" />
    <path
         id="path9"
         d="m 0,0 c 0,0 -6.62,-13.817 -13.934,-19.446 -10.836,-8.341 -33.055,-7.738 -42.486,-17.469 -11.299,-11.475 0.877,-26.636 0.775,-27.952 l -0.619,-8.006 c 0,0 7.619,-0.094 10.827,-0.607 4.824,-0.771 6.706,-4.795 15.687,-4.197 22.582,1.502 21.671,22.358 22.949,40.18 1.134,6.786 3.758,15.634 5.249,22.418 C -0.273,-9.261 0,0 0,0 Z"
         style="fill:none;stroke:#000000;stroke-width:2.096;stroke-linecap:butt;stroke-linejoin:miter;stroke-miterlimit:4;stroke-dasharray:none;stroke-opacity:1"
         transform="matrix(1.3333333,0,0,-1.3333333,669.67333,761.31293)" />
  </g>
  <g transform="translate(9.7350 -7.8745) scale(0.319475 0.319475)">
    <path
         id="path56"
         d="m 0,0 c 0,0 6.619,13.815 13.933,19.443 10.835,8.34 33.052,7.737 42.481,17.467 11.299,11.473 -0.876,26.631 -0.775,27.947 l 0.62,8.005 c 0,0 -7.619,0.094 -10.827,0.607 -4.823,0.771 -6.705,4.794 -15.685,4.196 C 7.168,76.163 8.078,55.311 6.801,37.492 5.667,30.706 3.043,21.859 1.552,15.076 0.273,9.26 0,0 0,0 Z"
         style="fill:#ffc700;fill-opacity:1;fill-rule:nonzero;stroke:none"
         transform="matrix(1.3333333,0,0,-1.3333333,1421.0007,203.07507)" />
    <path
         id="path57"
         d="m 0,0 c 0,0 6.619,13.815 13.933,19.443 10.835,8.34 33.052,7.737 42.481,17.467 11.299,11.473 -0.876,26.631 -0.775,27.947 l 0.62,8.005 c 0,0 -7.619,0.094 -10.827,0.607 -4.823,0.771 -6.705,4.794 -15.685,4.196 C 7.168,76.163 8.078,55.311 6.801,37.492 5.667,30.706 3.043,21.859 1.552,15.076 0.273,9.26 0,0 0,0 Z"
         style="fill:none;stroke:#000000;stroke-width:2.096;stroke-linecap:butt;stroke-linejoin:miter;stroke-miterlimit:4;stroke-dasharray:none;stroke-opacity:1"
         transform="matrix(1.3333333,0,0,-1.3333333,1421.0007,203.07507)" />
  </g>
  <g transform="translate(9.7350 211.7399) scale(0.319475 0.319475)">
    <path
         id="path54"
         d="m 0,0 c 0,0 6.614,-13.797 13.922,-19.418 10.827,-8.329 33.028,-7.728 42.45,-17.445 11.29,-11.458 -0.876,-26.597 -0.775,-27.911 l 0.619,-7.995 c 0,0 -7.612,-0.094 -10.818,-0.606 -4.82,-0.77 -6.7,-4.788 -15.674,-4.191 C 7.162,-76.066 8.072,-55.24 6.796,-37.444 5.662,-30.667 3.041,-21.832 1.551,-15.057 0.273,-9.248 0,0 0,0 Z"
         style="fill:#ffc700;fill-opacity:1;fill-rule:nonzero;stroke:none"
         transform="matrix(1.3333333,0,0,-1.3333333,1421.0636,761.46213)" />
    <path
         id="path55"
         d="m 0,0 c 0,0 6.614,-13.797 13.922,-19.418 10.827,-8.329 33.028,-7.728 42.45,-17.445 11.29,-11.458 -0.876,-26.597 -0.775,-27.911 l 0.619,-7.995 c 0,0 -7.612,-0.094 -10.818,-0.606 -4.82,-0.77 -6.7,-4.788 -15.674,-4.191 C 7.162,-76.066 8.072,-55.24 6.796,-37.444 5.662,-30.667 3.041,-21.832 1.551,-15.057 0.273,-9.248 0,0 0,0 Z"
         style="fill:none;stroke:#000000;stroke-width:2.096;stroke-linecap:butt;stroke-linejoin:miter;stroke-miterlimit:4;stroke-dasharray:none;stroke-opacity:1"
         transform="matrix(1.3333333,0,0,-1.3333333,1421.0636,761.46213)" />
  </g>
  <g transform="translate(12.3613 106.9375) scale(0.310547 0.310547)">
    <path
         id="path10"
         d="m 0,0 4.549,2.563 1.946,-2.568 c 2.593,-3.42 9.767,-3.381 14.527,0.079 l 3.64,2.646 3.048,-2.646 c 4.008,-3.479 11.492,-3.483 16.27,-0.012 3.346,2.431 3.812,2.48 6.024,0.63 1.319,-1.102 5.187,-2.358 8.596,-2.79 6.138,-0.777 6.231,-0.734 9.823,4.523 3.008,4.403 3.479,6.185 2.761,10.456 -0.476,2.831 -0.988,7.388 -1.139,10.126 -0.273,4.958 -0.243,4.989 7.158,7.503 4.088,1.389 8.82,3.252 10.515,4.14 2.956,1.547 11.107,10.893 11.107,12.735 0,0.488 -3.184,1.236 -7.076,1.662 -15.479,1.694 -18.1,9.803 -8.037,24.867 16.409,24.566 26.313,48.49 26.378,63.73 0.03,6.813 0.428,9.1 1.325,7.618 3.666,-6.054 -2.902,-31.438 -12.852,-49.666 l -4.007,-7.34 3.823,0.858 c 2.103,0.473 14.465,5.562 27.471,11.309 35.601,15.732 47.829,18.815 70.868,17.868 19.303,-0.793 27.523,-4.472 41.151,-18.419 7.22,-7.388 14.175,-12.675 26.897,-20.444 27.106,-16.555 28.236,-17.989 29.525,-37.457 1.306,-19.725 0.656,-20.795 -14.634,-24.091 -13.07,-2.817 -21.263,-8.762 -23.46,-17.021 -1.174,-4.411 1.296,-4.538 7.885,-0.406 l 4.829,3.028 2.147,-3.028 c 2.823,-3.981 8.823,-3.997 13.806,-0.036 l 3.764,2.991 3.847,-2.991 c 5.978,-4.648 13.928,-3.521 16.172,2.293 0.431,1.117 1.582,0.759 3.913,-1.217 4.368,-3.704 15.563,-5.292 16.772,-2.38 0.461,1.111 -0.415,3.855 -1.948,6.097 -6.514,9.53 -8.551,14.075 -8.636,19.262 -0.118,7.215 2.088,10.696 10.499,16.564 10.217,7.128 13.374,16.324 5.604,16.324 -4.797,0 -9.633,4.138 -12.717,10.881 -6.27,13.705 -5.041,29.071 4.369,54.632 9.557,25.963 10.618,30.751 10.655,48.115 0.032,14.04 -0.331,16.468 -3.605,24.165 -2.002,4.707 -6.063,11.714 -9.025,15.572 l -5.387,7.016 6.916,5.59 c 21.115,17.067 16.795,45.001 -8.623,55.764 -7.776,3.293 -9.719,3.584 -23.346,3.494 -8.175,-0.054 -20.641,-1.103 -27.702,-2.333 -7.199,-1.253 -19.384,-2.26 -27.742,-2.293 -13.279,-0.052 -15.534,0.267 -20.651,2.925 -5.336,2.771 -6.251,4.087 -7.295,10.492 -0.215,1.317 -1.159,2.63 -2.097,2.919 -1.815,0.558 -10.196,-6.539 -11.435,-9.683 -0.611,-1.551 -1.109,-1.444 -2.902,0.624 -1.19,1.374 -2.852,4.53 -3.693,7.014 -2.115,6.247 0.482,10.93 8.008,14.439 l 5.839,2.722 -3.443,2.085 c -7.105,4.301 -19.186,1.359 -23.555,-5.738 -1.236,-2.007 -2.584,-3.653 -2.996,-3.657 -0.411,-0.003 -2.76,1.91 -5.22,4.255 -9.173,8.746 -6.018,21.684 6.252,25.635 6.542,2.106 12.332,0.499 13.536,-3.757 1.839,-6.499 7.556,2.043 6.531,9.758 -0.682,5.129 -0.579,5.307 3.058,5.307 5.059,0 15.825,-6.478 19.156,-11.525 3.867,-5.862 3.586,-15.092 -0.67,-21.972 l -3.343,-5.402 4.372,0.854 c 6.411,1.253 12.639,5.137 15.79,9.848 3.331,4.98 3.689,14.678 0.735,19.91 -2.862,5.072 -2.534,5.877 1.698,4.163 7.197,-2.915 11.045,-6.129 13.931,-11.639 2.599,-4.961 2.744,-6.194 1.337,-11.358 -0.868,-3.186 -2.8,-7.378 -4.293,-9.315 -2.324,-3.017 -2.403,-3.522 -0.551,-3.522 3.449,0 10.65,3.185 13.209,5.841 1.292,1.342 3.176,4.647 4.187,7.344 l 1.837,4.904 2.111,-3.738 c 2.985,-5.286 8.789,-10.042 15.866,-13.002 7.61,-3.184 10.78,-3.363 6.8,-0.385 -2.684,2.008 -7.629,16.167 -6.13,17.551 0.881,0.815 11.214,-6.942 23.013,-17.276 11.16,-9.775 18.173,-12.978 28.424,-12.978 13.094,0 20.718,11.122 14.832,21.638 -3.431,6.131 -11.075,6.982 -15.544,1.732 -2.055,-2.415 -2.62,-4.336 -2.018,-6.868 0.738,-3.102 0.45,-3.516 -2.447,-3.516 -3.806,0 -11.309,4.751 -24.634,15.6 -20.318,16.543 -45.008,30.565 -62.835,35.687 -11.441,3.287 -35.88,4.57 -47.511,2.494 -12.587,-2.248 -27.475,-9.276 -35.585,-16.799 -14.372,-13.332 -14.6,-31.073 -0.607,-47.229 l 4.008,-4.627 -2.713,-4.113 c -3.948,-5.983 -3.61,-14.036 0.838,-19.967 1.959,-2.612 3.935,-4.748 4.392,-4.747 0.456,10e-4 0.956,1.681 1.112,3.732 0.392,5.19 2.675,8.666 6.593,10.043 3.529,1.24 5.81,0.654 21.968,-5.638 16.998,-6.62 44.952,-7.075 74.676,-1.216 14.572,2.873 31.755,2.704 39.314,-0.386 13.858,-5.665 17.07,-20.401 6.883,-31.586 -4.41,-4.843 -8.662,-6.815 -22.94,-10.638 -10.865,-2.91 -13.439,-3.103 -38.134,-2.862 -21.098,0.205 -28.681,-0.19 -37.293,-1.945 -9.35,-1.904 -15.101,-2.096 -42.566,-1.421 l -31.756,0.781 3.522,-2.845 c 1.937,-1.565 4.673,-3.49 6.08,-4.279 2.396,-1.341 2.316,-1.521 -1.244,-2.809 -2.092,-0.757 -6.736,-1.376 -10.319,-1.376 h -6.515 l -0.877,-5.402 c -0.482,-2.972 -0.446,-6.441 0.081,-7.709 0.777,-1.871 0.487,-2.14 -1.534,-1.423 -1.37,0.486 -5.186,1.441 -8.48,2.123 -3.294,0.682 -7.728,2.071 -9.853,3.087 -3.574,1.708 -3.971,1.662 -5.288,-0.611 -1.175,-2.03 -12.211,-10.044 -13.831,-10.044 -0.261,0 -0.598,1.545 -0.749,3.434 -0.151,1.889 -1.743,6.805 -3.538,10.926 -1.796,4.121 -3.67,8.616 -4.165,9.989 -0.748,2.072 -1.087,2.179 -1.989,0.625 -0.598,-1.031 -1.471,-3.84 -1.94,-6.244 -0.469,-2.403 -2.132,-6.308 -3.695,-8.677 l -2.843,-4.307 -1.813,3.683 c -1.946,3.953 -5.178,8.053 -6.347,8.053 -0.395,0 -1.068,-1.264 -1.495,-2.81 -0.892,-3.226 -8.554,-12.174 -10.425,-12.174 -0.689,0 -1.253,2.529 -1.253,5.619 0,3.09 -0.608,5.619 -1.351,5.619 -0.744,0 -1.352,-0.8 -1.352,-1.777 0,-2.376 -6.543,-9.461 -8.738,-9.461 -0.957,0 -2.498,-0.843 -3.423,-1.873 -2.413,-2.686 -4.386,-2.309 -3.372,0.644 0.476,1.384 0.166,4.615 -0.687,7.18 -0.854,2.564 -1.761,5.294 -2.017,6.065 -0.322,0.972 -2.667,0.714 -7.63,-0.838 -8.019,-2.509 -10.707,-2.065 -6.583,1.087 1.508,1.152 3.801,5.143 5.096,8.869 1.296,3.725 3.207,7.031 4.247,7.346 1.457,0.441 1.38,-0.104 -0.337,-2.37 -1.227,-1.618 -2.234,-3.799 -2.239,-4.848 0,-1.05 -0.927,-3.537 -2.051,-5.527 -1.123,-1.991 -1.83,-3.817 -1.569,-4.057 0.26,-0.241 3.312,0.89 6.781,2.513 l 6.307,2.951 0.026,-2.64 c 0.014,-1.452 0.774,-5.282 1.689,-8.511 l 1.663,-5.872 4.293,1.926 c 4.388,1.967 8.544,8.982 8.544,14.421 0,2.689 1.578,2.276 2.225,-0.581 0.19,-0.839 1.18,-3.986 2.202,-6.995 l 1.857,-5.469 2.939,3.453 c 1.617,1.9 3.644,5.625 4.504,8.279 1.494,4.608 3.84,6.588 3.84,3.243 0,-2.411 6.744,-11.059 8.044,-10.316 0.629,0.359 1.881,3.605 2.783,7.213 1.874,7.502 4.899,12.605 6.821,11.507 0.723,-0.413 1.004,-1.214 0.626,-1.78 -0.379,-0.566 1.174,-5.444 3.451,-10.84 2.277,-5.395 4.564,-10.827 5.081,-12.071 0.832,-1.999 1.584,-1.709 6.465,2.497 3.038,2.618 5.795,5.548 6.127,6.512 0.502,1.457 1.179,1.403 4.02,-0.316 3.972,-2.406 17.328,-6.281 18.359,-5.328 0.386,0.357 0.782,3.78 0.88,7.606 l 0.178,6.956 3.841,-0.777 c 2.112,-0.428 6.554,-0.402 9.87,0.058 l 6.029,0.836 -5.373,3.596 c -2.956,1.979 -5.944,4.539 -6.641,5.69 -0.742,1.225 -3.373,2.266 -6.352,2.513 -8.051,0.668 -22.319,8.476 -22.319,12.214 0,0.702 1.976,-0.491 4.391,-2.651 5.359,-4.792 12.804,-7.8 19.305,-7.8 h 4.865 l -3.01,3.905 c -1.728,2.244 -3.279,6.499 -3.643,10.001 -0.58,5.58 -1.184,6.467 -7.156,10.518 -3.588,2.434 -8.031,6.081 -9.875,8.105 l -3.351,3.681 -1.71,-4.37 c -0.941,-2.404 -2.09,-4.37 -2.555,-4.37 -0.464,0 -2.272,1.405 -4.018,3.121 -1.745,1.717 -3.523,3.116 -3.951,3.108 -0.428,-0.007 -1.975,-2.321 -3.436,-5.139 l -2.659,-5.125 -2.054,2.954 c -1.13,1.624 -3.798,4.499 -5.93,6.388 -2.132,1.888 -3.253,3.433 -2.492,3.433 0.761,0 3.393,-1.967 5.847,-4.372 l 4.463,-4.372 1.816,3.203 c 1.078,1.901 1.482,4.821 0.994,7.182 -0.712,3.441 -0.612,3.641 0.74,1.481 0.86,-1.374 3.471,-4.007 5.802,-5.852 l 4.238,-3.354 2.925,5.227 c 2.911,5.202 2.932,5.213 4.256,2.106 1.771,-4.155 14.589,-14.406 25.501,-20.396 1.682,-0.923 0.973,2.251 -2.133,9.551 -0.823,1.934 -1.496,5.419 -1.496,7.745 0,3.452 -1.021,4.988 -5.545,8.348 -6.532,4.849 -8.644,8.298 -9.875,16.122 -0.499,3.17 -1.642,6.695 -2.54,7.834 -1.333,1.69 -1.554,0.744 -1.197,-5.138 0.24,-3.965 -0.288,-8.895 -1.175,-10.955 l -1.611,-3.746 -1.246,3.122 c -0.685,1.716 -3.715,4.702 -6.734,6.635 -3.019,1.932 -5.138,3.838 -4.709,4.234 0.43,0.397 3.535,-1.364 6.902,-3.913 5.128,-3.884 6.258,-4.304 6.968,-2.594 0.835,2.01 -10e-4,10.754 -1.613,16.864 -0.805,3.052 -0.734,3.035 3.124,-0.728 2.845,-2.776 4.418,-6.087 5.637,-11.862 1.548,-7.338 2.33,-8.559 9.284,-14.517 4.176,-3.578 7.81,-6.304 8.076,-6.059 0.265,0.246 0.792,9.501 1.171,20.567 0.725,21.219 -0.095,26.269 -5.333,32.825 l -2.691,3.368 4.231,4.453 c 5.519,5.808 8.053,10.463 9.152,16.815 l 0.894,5.167 -4.774,-4.412 c -3.91,-3.612 -5.777,-4.411 -10.305,-4.411 -4.483,0 -6.235,0.733 -9.256,3.874 -3.625,3.769 -10.049,7.395 -16.226,9.16 -2.282,0.652 -3.04,0.368 -3.04,-1.138 0,-1.104 -1.261,-4.29 -2.802,-7.08 l -2.8,-5.073 -5.869,5.659 c -3.6,3.472 -7.872,6.174 -11.05,6.989 -8.12,2.084 -8.559,1.877 -8.559,-4.025 0,-8.953 -3.918,-10.621 -10.969,-4.671 -5.375,4.537 -9.834,5.523 -20.027,4.43 l -7.872,-0.844 1.417,-3.468 c 1.183,-2.896 0.916,-4.116 -1.618,-7.405 -4.112,-5.335 -9.457,-7.646 -17.686,-7.646 -3.79,0 -8.533,-0.765 -10.54,-1.701 -2.007,-0.935 -6.993,-2.012 -11.081,-2.394 -4.088,-0.382 -8.445,-1.063 -9.682,-1.514 -1.936,-0.706 -2.149,-0.124 -1.525,4.172 0.954,6.576 -3.753,11.426 -11.09,11.426 -9.519,0 -13.909,-8.307 -10.181,-19.266 0.717,-2.109 1.656,-5.435 2.086,-7.391 0.446,-2.029 4.733,-7.415 9.985,-12.542 5.062,-4.942 9.846,-10.084 10.632,-11.427 0.785,-1.343 3.381,-3.498 5.769,-4.789 l 4.342,-2.348 -0.572,4.533 c -0.63,4.982 0.483,5.763 3.199,2.248 0.971,-1.257 3.438,-3.288 5.482,-4.514 3.22,-1.931 3.716,-1.971 3.716,-0.294 0,1.065 0.656,3.517 1.459,5.451 l 1.458,3.515 2.531,-4.783 c 1.392,-2.63 5.918,-8.609 10.058,-13.285 8.034,-9.074 12.929,-19.214 10.403,-21.548 -1.025,-0.947 -3.795,-0.873 -9.536,0.252 -4.45,0.873 -9.954,1.334 -12.232,1.026 -4.651,-0.631 -5.018,-0.045 -2.157,3.449 3.019,3.689 2.539,4.297 -3.392,4.297 -6.862,0 -23.898,3.21 -30.438,5.734 -6.359,2.455 -7.826,1.844 -9.698,-4.04 -0.842,-2.649 -2.384,-7.448 -3.427,-10.665 l -1.896,-5.849 6.88,0.647 c 3.784,0.355 8.651,1.164 10.815,1.796 2.165,0.633 4.132,0.969 4.372,0.747 0.239,-0.222 -0.725,-2.507 -2.144,-5.079 l -2.58,-4.675 4.289,0.853 c 2.36,0.469 5.909,1.617 7.888,2.551 3.443,1.626 3.72,1.508 6.436,-2.746 3.34,-5.231 6.012,-5.016 6.605,0.531 0.613,5.735 2.546,4.887 6.183,-2.713 3.498,-7.307 7.136,-9.887 7.836,-5.555 0.232,1.438 2.116,3.779 4.186,5.203 4.189,2.879 7.345,2.015 9.155,-2.505 1.873,-4.679 -2.305,-9.502 -14.457,-16.689 -24.342,-14.397 -38.492,-34.088 -42.531,-59.185 -3.644,-22.637 7.736,-46.029 30.565,-62.83 10.925,-8.04 28.28,-16.526 27.177,-13.288 -4.684,13.751 -4.529,39.988 0.261,44.414 0.719,0.664 0.472,-2.073 -0.549,-6.084 C 28.001,104.028 29.653,92.124 39.404,64.226 48.222,38.994 47.002,28.21 34.521,21.082 30.512,18.792 27.931,18.415 17.153,18.543 5.458,18.681 4.184,18.452 0.429,15.533 -3.211,12.702 -7.93,3.41 -7.93,-0.926 c 0,-2.349 2.673,-2.038 7.927,0.921 z"
         style="fill:#ffbe29;fill-opacity:1;fill-rule:nonzero;stroke:#000000;stroke-width:5.56;stroke-linecap:butt;stroke-linejoin:miter;stroke-miterlimit:4;stroke-dasharray:none;stroke-opacity:1"
         transform="matrix(1.3333333,0,0,-1.3333333,894.696,733.94773)" />
    <path
         id="path11"
         d="M 0,0 4.906,3.076 8.235,0 c 4.362,-4.03 9.471,-3.94 13.664,0.241 1.83,1.825 3.473,3.089 3.652,2.809 0.178,-0.279 0.994,-1.631 1.813,-3.005 1.037,-1.738 3.168,-2.613 7.015,-2.877 4.635,-0.319 5.88,0.118 7.721,2.715 l 2.196,3.097 4.829,-3.028 c 13.221,-8.291 20.265,0.407 14.357,17.727 -3.004,8.807 -1.352,13.758 8.331,24.967 4.083,4.727 7.427,9.772 7.431,11.211 0,2.295 -0.755,2.602 -6.19,2.497 -5.2,-0.101 -6.721,0.444 -9.459,3.384 -4.452,4.782 -4.187,10.258 0.79,16.336 l 3.975,4.854 -7.053,4.671 c -3.88,2.569 -10.876,8.647 -15.548,13.506 -10.492,10.914 -20.807,16.089 -34.411,17.263 l -9.121,0.787 0.014,-6.736 C 2.258,101.748 6.429,93.406 17.814,79.275 30.76,63.21 31.663,60.722 32.188,39.723 L 32.631,21.964 28.885,18.497 C 25.501,15.363 23.974,14.963 13.052,14.349 2.654,13.764 0.469,13.24 -2.582,10.603 -6.635,7.1 -7.847,5.195 -9.098,0.357 c -0.73,-2.819 -0.434,-3.434 1.651,-3.434 1.397,0 4.748,1.385 7.446,3.077 z"
         style="fill:#ffbe29;fill-opacity:1;fill-rule:nonzero;stroke:#000000;stroke-width:5.56;stroke-linecap:butt;stroke-linejoin:miter;stroke-miterlimit:4;stroke-dasharray:none;stroke-opacity:1"
         transform="matrix(1.3333333,0,0,-1.3333333,1147.8029,733.26893)" />
    <path
         id="path12"
         d="m 0,0 c 0,2.245 1.028,2.844 6.085,3.545 l 6.086,0.843 -4.059,3.156 c -4.821,3.749 -5.267,6.678 -1.018,6.684 4.233,0 11.401,4.288 12.491,7.461 0.506,1.475 0.187,3.445 -0.721,4.457 -2.373,2.641 -6.834,2.243 -7.662,-0.685 C 10.311,22.314 8.82,22.306 5.439,25.43 0.354,30.129 0.24,39.857 5.203,45.521 c 2.34,2.669 2.319,2.844 -0.663,5.6 -3.209,2.965 -5.5,8.833 -3.993,10.226 0.48,0.443 3.014,0.09 5.633,-0.785 3.721,-1.244 5.19,-1.262 6.722,-0.086 4.644,3.56 -0.387,8.139 -7.833,7.129 -2.997,-0.406 -4.235,0 -4.665,1.517 -0.326,1.15 -2.947,2.653 -5.9,3.381 -5.277,1.302 -5.315,1.286 -5.315,-2.262 0,-3.887 -2.274,-4.62 -6.595,-2.127 -3.512,2.027 -6.918,0.454 -6.918,-3.195 0,-3.404 3.509,-5.083 9.797,-4.688 4.823,0.304 5.003,-3.196 0.422,-8.226 l -3.294,-3.618 2.61,-3.658 c 3.865,-5.417 3.539,-14.415 -0.683,-18.884 l -3.31,-3.503 -2.172,2.809 c -3.018,3.904 -7.146,3.643 -8.278,-0.525 -0.741,-2.729 -0.128,-3.976 3.374,-6.867 2.354,-1.944 5.79,-3.534 7.637,-3.534 4.569,0 4.39,-3.505 -0.36,-7.047 l -3.716,-2.771 5.743,-0.869 c 3.159,-0.478 5.743,-1.378 5.743,-1.999 0,-2.381 1.488,-9.609 5.26,-9.789 C -2.183,-8.412 -0.079,-3.414 0,0 Z"
         style="fill:#ffbe29;fill-opacity:1;fill-rule:nonzero;stroke:none"
         transform="matrix(1.3333333,0,0,-1.3333333,779.62267,664.7668)" />
    <path
         id="path13"
         d="m 0,0 c 0,2.245 1.028,2.844 6.085,3.545 l 6.086,0.843 -4.059,3.156 c -4.821,3.749 -5.267,6.678 -1.018,6.684 4.233,0 11.401,4.288 12.491,7.461 0.506,1.475 0.187,3.445 -0.721,4.457 -2.373,2.641 -6.834,2.243 -7.662,-0.685 C 10.311,22.314 8.82,22.306 5.439,25.43 0.354,30.129 0.24,39.857 5.203,45.521 c 2.34,2.669 2.319,2.844 -0.663,5.6 -3.209,2.965 -5.5,8.833 -3.993,10.226 0.48,0.443 3.014,0.09 5.633,-0.785 3.721,-1.244 5.19,-1.262 6.722,-0.086 4.644,3.56 -0.387,8.139 -7.833,7.129 -2.997,-0.406 -4.235,0 -4.665,1.517 -0.326,1.15 -2.947,2.653 -5.9,3.381 -5.277,1.302 -5.315,1.286 -5.315,-2.262 0,-3.887 -2.274,-4.62 -6.595,-2.127 -3.512,2.027 -6.918,0.454 -6.918,-3.195 0,-3.404 3.509,-5.083 9.797,-4.688 4.823,0.304 5.003,-3.196 0.422,-8.226 l -3.294,-3.618 2.61,-3.658 c 3.865,-5.417 3.539,-14.415 -0.683,-18.884 l -3.31,-3.503 -2.172,2.809 c -3.018,3.904 -7.146,3.643 -8.278,-0.525 -0.741,-2.729 -0.128,-3.976 3.374,-6.867 2.354,-1.944 5.79,-3.534 7.637,-3.534 4.569,0 4.39,-3.505 -0.36,-7.047 l -3.716,-2.771 5.743,-0.869 c 3.159,-0.478 5.743,-1.378 5.743,-1.999 0,-2.381 1.488,-9.609 5.26,-9.789 C -2.183,-8.412 -0.079,-3.414 0,0 Z"
         style="fill:none;stroke:#000000;stroke-width:5.56;stroke-linecap:butt;stroke-linejoin:miter;stroke-miterlimit:4;stroke-dasharray:none;stroke-opacity:1"
         transform="matrix(1.3333333,0,0,-1.3333333,779.62267,664.7668)" />
    <path
         id="path14"
         d="m 0,0 c 5.218,2.007 16.51,11.336 16.51,13.642 0,0.724 -3.117,4.069 -6.927,7.432 -8.016,7.078 -16.737,18.996 -18.996,25.965 -1.178,3.633 -6.871,9.854 -22.907,25.028 l -21.338,20.192 -6.15,-1.52 c -3.383,-0.836 -7.51,-1.54 -9.171,-1.565 -2.864,-0.042 -2.812,-0.202 0.995,-3.077 l 4.017,-3.033 5.63,3.049 c 5.458,2.956 5.653,2.974 6.326,0.596 0.394,-1.393 -0.456,-3.806 -1.965,-5.579 -1.463,-1.718 -2.296,-3.668 -1.852,-4.332 0.444,-0.664 -0.961,-2.053 -3.123,-3.086 -4.007,-1.914 -6.788,-8.217 -3.626,-8.217 2.845,0 9.117,7.552 8.395,10.106 -0.371,1.308 -0.191,2.653 0.398,2.99 2.443,1.395 2.29,-4.534 -0.192,-7.45 -1.463,-1.719 -2.296,-3.668 -1.852,-4.332 0.444,-0.664 -0.961,-2.053 -3.123,-3.086 -3.981,-1.902 -6.79,-8.217 -3.656,-8.217 3.073,0 9.243,7.216 8.478,9.916 -0.399,1.412 -0.244,2.843 0.344,3.179 1.646,0.94 2.534,-3.74 1.145,-6.034 -0.744,-1.228 -0.738,-2.905 0.017,-4.235 1.367,-2.409 -0.019,-7.036 -2.537,-8.475 -1.08,-0.616 -0.349,-1.826 2.27,-3.755 3.789,-2.792 3.862,-3.085 3.862,-15.405 0,-10.296 0.426,-12.953 2.365,-14.745 2.176,-2.012 2.365,-2.019 2.365,-0.09 0,2.106 3.79,4.681 6.89,4.681 0.915,0 6.628,-4.724 12.697,-10.499 6.105,-5.81 12.494,-10.753 14.304,-11.068 1.798,-0.313 3.745,-0.645 4.326,-0.739 0.581,-0.093 3.317,0.7 6.081,1.762 z"
         style="fill:#ffbe29;fill-opacity:1;fill-rule:nonzero;stroke:#000000;stroke-width:5.56;stroke-linecap:butt;stroke-linejoin:miter;stroke-miterlimit:4;stroke-dasharray:none;stroke-opacity:1"
         transform="matrix(1.3333333,0,0,-1.3333333,876.52453,629.9036)" />
    <path
         id="path15"
         d="m 0,0 c 0,3.319 -7.017,6.862 -15.41,7.78 -6.776,0.742 -6.887,0.7 -6.887,-2.603 0,-2.733 1.066,-3.809 5.743,-5.796 C -9.038,-3.812 0,-3.474 0,0 Z"
         style="fill:#ffbe29;fill-opacity:1;fill-rule:nonzero;stroke:none"
         transform="matrix(1.3333333,0,0,-1.3333333,789.5352,563.49133)" />
    <path
         id="path16"
         d="m 0,0 c 0,3.319 -7.017,6.862 -15.41,7.78 -6.776,0.742 -6.887,0.7 -6.887,-2.603 0,-2.733 1.066,-3.809 5.743,-5.796 C -9.038,-3.812 0,-3.474 0,0 Z"
         style="fill:none;stroke:#000000;stroke-width:5.56;stroke-linecap:butt;stroke-linejoin:miter;stroke-miterlimit:4;stroke-dasharray:none;stroke-opacity:1"
         transform="matrix(1.3333333,0,0,-1.3333333,789.5352,563.49133)" />
    <path
         id="path17"
         d="M 0,0 C 3.423,3.03 5.044,6.634 2.985,6.634 0.617,6.634 -5.669,1.131 -5.669,-0.943 -5.669,-4.179 -4.501,-3.985 0,0 Z"
         style="fill:#ffbe29;fill-opacity:1;fill-rule:nonzero;stroke:none"
         transform="matrix(1.3333333,0,0,-1.3333333,799.78973,563.084)" />
    <path
         id="path18"
         d="M 0,0 C 3.423,3.03 5.044,6.634 2.985,6.634 0.617,6.634 -5.669,1.131 -5.669,-0.943 -5.669,-4.179 -4.501,-3.985 0,0 Z"
         style="fill:none;stroke:#000000;stroke-width:5.56;stroke-linecap:butt;stroke-linejoin:miter;stroke-miterlimit:4;stroke-dasharray:none;stroke-opacity:1"
         transform="matrix(1.3333333,0,0,-1.3333333,799.78973,563.084)" />
    <path
         id="path19"
         d="m 0,0 c 0.29,1.873 -0.897,3.122 -4.456,4.69 -7.676,3.383 -16.853,4.949 -19.063,3.254 -4.071,-3.121 -1.358,-7.313 5.221,-8.067 2.648,-0.304 6.24,-1.092 7.981,-1.752 C -5.261,-3.791 -0.452,-2.917 0,0"
         style="fill:#ffbe29;fill-opacity:1;fill-rule:nonzero;stroke:#000000;stroke-width:5.56;stroke-linecap:butt;stroke-linejoin:miter;stroke-miterlimit:4;stroke-dasharray:none;stroke-opacity:1"
         transform="matrix(1.3333333,0,0,-1.3333333,790.064,549.99707)" />
    <path
         id="path20"
         d="M 0,0 C 0.413,2.671 -1.337,3.627 -15.63,8.536 -26.3,12.2 -31.024,10.472 -27.614,4.152 -26.426,1.95 -24.432,0.944 -19.961,0.291 -16.635,-0.195 -12.09,-1.145 -9.86,-1.821 -3.904,-3.625 -0.462,-2.989 0,0 Z"
         style="fill:#ffbe29;fill-opacity:1;fill-rule:nonzero;stroke:none"
         transform="matrix(1.3333333,0,0,-1.3333333,790.064,536.62493)" />
    <path
         id="path21"
         d="M 0,0 C 0.413,2.671 -1.337,3.627 -15.63,8.536 -26.3,12.2 -31.024,10.472 -27.614,4.152 -26.426,1.95 -24.432,0.944 -19.961,0.291 -16.635,-0.195 -12.09,-1.145 -9.86,-1.821 -3.904,-3.625 -0.462,-2.989 0,0 Z"
         style="fill:none;stroke:#000000;stroke-width:5.56;stroke-linecap:butt;stroke-linejoin:miter;stroke-miterlimit:4;stroke-dasharray:none;stroke-opacity:1"
         transform="matrix(1.3333333,0,0,-1.3333333,790.064,536.62493)" />
    <path
         id="path22"
         d="m 0,0 c 2.157,2.133 3.921,4.65 3.921,5.593 0,3.061 -8.517,-2.354 -9.603,-6.104 C -6.984,-5.01 -4.873,-4.821 0,0 Z"
         style="fill:#ffbe29;fill-opacity:1;fill-rule:nonzero;stroke:none"
         transform="matrix(1.3333333,0,0,-1.3333333,799.60893,524.09467)" />
    <path
         id="path23"
         d="m 0,0 c 2.157,2.133 3.921,4.65 3.921,5.593 0,3.061 -8.517,-2.354 -9.603,-6.104 C -6.984,-5.01 -4.873,-4.821 0,0 Z"
         style="fill:none;stroke:#000000;stroke-width:5.56;stroke-linecap:butt;stroke-linejoin:miter;stroke-miterlimit:4;stroke-dasharray:none;stroke-opacity:1"
         transform="matrix(1.3333333,0,0,-1.3333333,799.60893,524.09467)" />
    <path
         id="path24"
         d="M 0,0 C 0.47,3.043 -4.717,5.791 -14.916,7.903 -22.4,9.453 -25.7,8.574 -25.14,5.181 -24.834,3.329 -22.342,1.976 -15.272,-0.177 -3.957,-3.622 -0.554,-3.583 -0.001,0 Z"
         style="fill:#ffbe29;fill-opacity:1;fill-rule:nonzero;stroke:#000000;stroke-width:5.56;stroke-linecap:butt;stroke-linejoin:miter;stroke-miterlimit:4;stroke-dasharray:none;stroke-opacity:1"
         transform="matrix(1.3333333,0,0,-1.3333333,790.064,523.25293)" />
    <path
         id="path25"
         d="m 0,0 c 13.07,5.677 14.2,19.992 1.876,23.75 -5.117,1.561 -8.384,0.72 -10.343,-2.662 -1.5,-2.59 -0.497,-7.298 1.555,-7.298 0.693,0 1.26,-0.872 1.26,-1.937 0,-4.97 -19.955,-7.223 -28.139,-3.175 -2.875,1.421 -4.127,5.112 -1.734,5.112 1.788,0 3.024,3.761 2.111,6.42 -1.245,3.624 -4.988,4.88 -10.418,3.494 C -56.083,20.579 -55.739,6.533 -43.266,0.573 -33.038,-4.315 -10.616,-4.612 0,-0.001 Z"
         style="fill:#ffbe29;fill-opacity:1;fill-rule:nonzero;stroke:#000000;stroke-width:5.56;stroke-linecap:butt;stroke-linejoin:miter;stroke-miterlimit:4;stroke-dasharray:none;stroke-opacity:1"
         transform="matrix(1.3333333,0,0,-1.3333333,803.3656,504.3692)" />
    <path
         id="path26"
         d="m 0,0 c 0.757,0.699 0.428,1.774 -0.841,2.747 -2.779,2.131 -2.63,5.3 0.417,8.929 2.289,2.724 2.575,6.801 3.363,47.929 1.358,70.877 6.759,124.187 13.879,136.976 2.835,5.091 2.437,5.112 -4.888,0.249 C 2.495,190.566 -4.689,182.41 -11.055,170.733 -23.072,148.689 -27.248,119.03 -27.248,55.72 c 0,-35.947 0.251,-40.65 2.349,-44.029 1.994,-3.21 2.1,-4.395 0.699,-7.823 -0.907,-2.222 -1.319,-4.346 -0.915,-4.72 2.683,-2.479 22.23,-1.821 25.115,0.846 z"
         style="fill:#ffbe29;fill-opacity:1;fill-rule:nonzero;stroke:#000000;stroke-width:5.56;stroke-linecap:butt;stroke-linejoin:miter;stroke-miterlimit:4;stroke-dasharray:none;stroke-opacity:1"
         transform="matrix(1.3333333,0,0,-1.3333333,792.52667,489.69387)" />
    <path
         id="path27"
         d="m 0,0 c 0.409,0.612 -0.495,3.702 -2.01,6.868 -2.362,4.934 -3.314,5.754 -6.679,5.754 -10.542,0 -27.488,4.597 -44.959,12.194 -10.088,4.387 -13.573,5.396 -14.782,4.278 -3.087,-2.853 2.043,-9.623 9.988,-13.182 7.048,-3.157 26.751,-7.036 35.739,-7.036 5.214,0 5.337,-0.23 2.37,-4.414 l -2.182,-3.078 5.898,-0.148 C -13.373,1.155 -8.894,0.66 -6.665,0.135 -0.874,-1.226 -0.82,-1.227 0.001,0 Z"
         style="fill:#ffbe29;fill-opacity:1;fill-rule:nonzero;stroke:#000000;stroke-width:5.56;stroke-linecap:butt;stroke-linejoin:miter;stroke-miterlimit:4;stroke-dasharray:none;stroke-opacity:1"
         transform="matrix(1.3333333,0,0,-1.3333333,938.94213,399.57827)" />
    <path
         id="path28"
         d="m 0,0 c 0,1.832 -5.514,6.797 -11.101,9.995 -4.388,2.513 -5.113,2.589 -5.123,0.54 -0.014,-3.111 -2.849,-10.926 -3.963,-10.926 -0.628,0 -1.556,1.527 -2.063,3.394 -0.507,1.866 -2.634,5.545 -4.727,8.174 l -3.805,4.781 -2.962,-4.429 c -2.762,-4.13 -7.547,-8.174 -9.67,-8.174 -0.507,0 -0.606,2.175 -0.221,4.833 0.42,2.888 0.096,5.179 -0.804,5.692 -0.828,0.473 -1.506,0.308 -1.506,-0.366 0,-1.556 -6.644,-8.91 -8.05,-8.91 -0.579,0 -1.39,2.107 -1.802,4.682 -0.412,2.576 -1.112,6.649 -1.555,9.053 -0.444,2.404 0.502,0.774 2.102,-3.622 l 2.91,-7.993 3.191,4.871 c 1.755,2.679 3.194,5.606 3.198,6.505 0,0.899 0.597,1.298 1.319,0.886 0.721,-0.413 1.726,-3.633 2.232,-7.157 l 0.919,-6.406 3.512,3.756 c 1.931,2.065 4.193,4.831 5.028,6.146 1.489,2.345 1.574,2.343 4.536,-0.108 1.66,-1.373 4.212,-4.659 5.671,-7.301 1.459,-2.641 2.848,-4.608 3.087,-4.37 0.239,0.238 0.773,2.962 1.188,6.052 0.415,3.091 0.786,5.734 0.823,5.874 0.207,0.766 10.576,-5.811 14.414,-9.141 2.466,-2.141 4.808,-3.592 5.204,-3.226 0.397,0.367 0.721,3.524 0.721,7.018 0,5.413 -0.588,6.864 -3.982,9.824 -3.902,3.402 -4.011,3.421 -5.453,0.932 -1.871,-3.231 -4.078,-3.277 -4.078,-0.086 0,2.329 -7.374,11.281 -9.292,11.281 -0.497,0 -2.05,-1.966 -3.451,-4.37 -1.401,-2.404 -2.907,-4.368 -3.348,-4.365 -1.891,0.011 -12.286,11.319 -12.281,13.36 0,1.624 0.7,1.208 2.523,-1.503 1.385,-2.06 4.151,-5.136 6.147,-6.835 4.041,-3.44 5.511,-2.603 7.07,4.026 0.445,1.888 1.217,3.433 1.716,3.433 1.728,0 10.777,-9.377 12.05,-12.486 l 1.278,-3.122 0.968,3.434 c 1.183,4.199 2.489,4.355 4.378,0.523 0.789,-1.6 4.688,-4.928 8.663,-7.395 l 7.227,-4.484 1.451,4.51 c 0.798,2.481 1.854,3.907 2.348,3.169 0.737,-1.102 -1.142,-8.576 -2.559,-10.184 -0.213,-0.241 -2.555,1.09 -5.205,2.957 L 4.055,16.138 4.036,10.059 C 4.022,6.715 3.651,2.715 3.203,1.17 2.326,-1.851 0,-2.701 0,0 Z"
         style="fill:#000000;fill-opacity:1;fill-rule:nonzero;stroke:none"
         transform="matrix(1.3333333,0,0,-1.3333333,1021.0477,442.16533)" />
    <path
         id="path29"
         d="m 0,0 c 0,1.832 -5.514,6.797 -11.101,9.995 -4.388,2.513 -5.113,2.589 -5.123,0.54 -0.014,-3.111 -2.849,-10.926 -3.963,-10.926 -0.628,0 -1.556,1.527 -2.063,3.394 -0.507,1.866 -2.634,5.545 -4.727,8.174 l -3.805,4.781 -2.962,-4.429 c -2.762,-4.13 -7.547,-8.174 -9.67,-8.174 -0.507,0 -0.606,2.175 -0.221,4.833 0.42,2.888 0.096,5.179 -0.804,5.692 -0.828,0.473 -1.506,0.308 -1.506,-0.366 0,-1.556 -6.644,-8.91 -8.05,-8.91 -0.579,0 -1.39,2.107 -1.802,4.682 -0.412,2.576 -1.112,6.649 -1.555,9.053 -0.444,2.404 0.502,0.774 2.102,-3.622 l 2.91,-7.993 3.191,4.871 c 1.755,2.679 3.194,5.606 3.198,6.505 0,0.899 0.597,1.298 1.319,0.886 0.721,-0.413 1.726,-3.633 2.232,-7.157 l 0.919,-6.406 3.512,3.756 c 1.931,2.065 4.193,4.831 5.028,6.146 1.489,2.345 1.574,2.343 4.536,-0.108 1.66,-1.373 4.212,-4.659 5.671,-7.301 1.459,-2.641 2.848,-4.608 3.087,-4.37 0.239,0.238 0.773,2.962 1.188,6.052 0.415,3.091 0.786,5.734 0.823,5.874 0.207,0.766 10.576,-5.811 14.414,-9.141 2.466,-2.141 4.808,-3.592 5.204,-3.226 0.397,0.367 0.721,3.524 0.721,7.018 0,5.413 -0.588,6.864 -3.982,9.824 -3.902,3.402 -4.011,3.421 -5.453,0.932 -1.871,-3.231 -4.078,-3.277 -4.078,-0.086 0,2.329 -7.374,11.281 -9.292,11.281 -0.497,0 -2.05,-1.966 -3.451,-4.37 -1.401,-2.404 -2.907,-4.368 -3.348,-4.365 -1.891,0.011 -12.286,11.319 -12.281,13.36 0,1.624 0.7,1.208 2.523,-1.503 1.385,-2.06 4.151,-5.136 6.147,-6.835 4.041,-3.44 5.511,-2.603 7.07,4.026 0.445,1.888 1.217,3.433 1.716,3.433 1.728,0 10.777,-9.377 12.05,-12.486 l 1.278,-3.122 0.968,3.434 c 1.183,4.199 2.489,4.355 4.378,0.523 0.789,-1.6 4.688,-4.928 8.663,-7.395 l 7.227,-4.484 1.451,4.51 c 0.798,2.481 1.854,3.907 2.348,3.169 0.737,-1.102 -1.142,-8.576 -2.559,-10.184 -0.213,-0.241 -2.555,1.09 -5.205,2.957 L 4.055,16.138 4.036,10.059 C 4.022,6.715 3.651,2.715 3.203,1.17 2.326,-1.851 0,-2.701 0,0 Z"
         style="fill:none;stroke:#000000;stroke-width:5.56;stroke-linecap:butt;stroke-linejoin:miter;stroke-miterlimit:4;stroke-dasharray:none;stroke-opacity:1"
         transform="matrix(1.3333333,0,0,-1.3333333,1021.0477,442.16533)" />
    <path
         id="path30"
         d="m 0,0 c -8.59,6.997 -9.894,8.599 -9.704,11.915 l 0.203,3.53 0.56,-3.41 c 0.328,-1.991 2.615,-4.974 5.498,-7.17 L 1.495,1.104 4.529,4.528 c 1.669,1.884 3.057,4.127 3.083,4.985 0.071,2.239 0.482,2.051 6.298,-2.873 5.167,-4.374 5.247,-4.395 6.016,-1.56 0.428,1.58 0.276,4.555 -0.338,6.61 -1.688,5.651 -1.358,6.504 1.201,3.096 1.274,-1.698 3.324,-4.099 4.554,-5.334 2.142,-2.152 2.273,-2.125 3.069,0.624 0.458,1.579 0.841,4.469 0.851,6.423 l 0.019,3.552 4.659,-5.153 c 4.352,-4.813 4.753,-4.991 6.081,-2.697 0.782,1.35 1.431,4.599 1.443,7.219 0.014,3.386 0.38,4.24 1.262,2.951 1.474,-2.153 0.451,-8.013 -2.27,-13.007 L 38.504,5.78 35.94,9.676 C 32.662,14.657 31.57,14.577 29.466,9.201 27.478,4.121 26.185,3.734 24.248,7.641 22.995,10.169 22.756,9.859 21.866,4.548 L 20.877,-1.354 14.951,3.133 9.025,7.62 6.362,4.665 C 4.896,3.039 3.677,1.007 3.653,0.149 3.599,-1.712 2.173,-1.77 0.001,0 Z"
         style="fill:#000000;fill-opacity:1;fill-rule:nonzero;stroke:#000000;stroke-width:5.56;stroke-linecap:butt;stroke-linejoin:miter;stroke-miterlimit:4;stroke-dasharray:none;stroke-opacity:1"
         transform="matrix(1.3333333,0,0,-1.3333333,973.0032,377.54507)" />
    <path
         id="path31"
         d="m 0,0 c -3.127,2.748 -5.281,5.37 -4.786,5.827 0.494,0.457 1.05,0.587 1.236,0.291 C -3.364,5.821 -0.809,3.199 2.129,0.291 8.893,-6.405 7.503,-6.595 0,0 Z"
         style="fill:#000000;fill-opacity:1;fill-rule:nonzero;stroke:none"
         transform="matrix(1.3333333,0,0,-1.3333333,1074.8804,342.7912)" />
    <path
         id="path32"
         d="m 0,0 c -3.127,2.748 -5.281,5.37 -4.786,5.827 0.494,0.457 1.05,0.587 1.236,0.291 C -3.364,5.821 -0.809,3.199 2.129,0.291 8.893,-6.405 7.503,-6.595 0,0 Z"
         style="fill:none;stroke:#000000;stroke-width:5.56;stroke-linecap:butt;stroke-linejoin:miter;stroke-miterlimit:4;stroke-dasharray:none;stroke-opacity:1"
         transform="matrix(1.3333333,0,0,-1.3333333,1074.8804,342.7912)" />
    <path
         id="path33"
         d="m 0,0 c -2.844,3.752 -2.648,6.238 0.814,10.305 2.502,2.939 3.645,3.338 8.013,2.796 2.803,-0.347 8.833,-2.763 13.4,-5.368 C 27.503,4.724 32.96,2.708 37.187,2.207 40.846,1.773 43.84,1.61 43.84,1.844 c 0,0.234 -1.52,2.65 -3.378,5.37 -4.412,6.459 -4.261,7.152 0.716,3.282 5.108,-3.972 11.219,-5.133 24.873,-4.729 l 6.672,0.198 -3.871,3.733 c -5.412,5.221 -3.746,5.689 2.231,0.627 C 76.689,5.578 76.338,5.243 64.539,4.094 59.525,3.606 54.132,3.96 49.65,5.072 42.945,6.736 42.685,6.711 43.955,4.517 44.687,3.254 45.873,2.219 46.59,2.219 c 0.717,0 1.303,-0.64 1.303,-1.423 0,-2.407 -14.483,-0.29 -21.403,3.129 C 10.679,11.735 8.689,12.412 4.926,11.255 2.832,10.611 0.736,8.726 0.013,6.838 -2.396,0.538 6.761,-4.359 10.538,1.21 11.632,2.824 11.377,3.928 9.453,5.892 6.818,8.583 7.065,8.966 10.622,7.705 13.147,6.809 13.487,0.894 11.138,-1.277 8.45,-3.76 2.316,-3.057 -0.001,0 Z"
         style="fill:#000000;fill-opacity:1;fill-rule:nonzero;stroke:#000000;stroke-width:5.56;stroke-linecap:butt;stroke-linejoin:miter;stroke-miterlimit:4;stroke-dasharray:none;stroke-opacity:1"
         transform="matrix(1.3333333,0,0,-1.3333333,939.17867,329.10693)" />
    <path
         id="path34"
         d="m 0,0 c -1.977,1.827 -0.427,2.274 8.437,2.436 10.965,0.199 17.625,1.982 25.483,6.822 6.296,3.878 8.003,3.115 2.027,-0.906 C 30.495,4.684 21.993,1.864 13.783,1.002 9.808,0.584 5.278,0.006 3.716,-0.284 2.154,-0.573 0.482,-0.445 0,0 Z"
         style="fill:#000000;fill-opacity:1;fill-rule:nonzero;stroke:none"
         transform="matrix(1.3333333,0,0,-1.3333333,1022.2165,308.3632)" />
    <path
         id="path35"
         d="m 0,0 c -1.977,1.827 -0.427,2.274 8.437,2.436 10.965,0.199 17.625,1.982 25.483,6.822 6.296,3.878 8.003,3.115 2.027,-0.906 C 30.495,4.684 21.993,1.864 13.783,1.002 9.808,0.584 5.278,0.006 3.716,-0.284 2.154,-0.573 0.482,-0.445 0,0 Z"
         style="fill:none;stroke:#000000;stroke-width:5.56;stroke-linecap:butt;stroke-linejoin:miter;stroke-miterlimit:4;stroke-dasharray:none;stroke-opacity:1"
         transform="matrix(1.3333333,0,0,-1.3333333,1022.2165,308.3632)" />
    <path
         id="path36"
         d="m 0,0 4.549,2.563 1.946,-2.568 c 2.593,-3.42 9.767,-3.381 14.527,0.079 l 3.64,2.646 3.048,-2.646 c 4.008,-3.479 11.492,-3.483 16.27,-0.012 3.346,2.431 3.812,2.48 6.024,0.63 1.319,-1.102 5.187,-2.358 8.596,-2.79 6.138,-0.777 6.231,-0.734 9.823,4.523 3.008,4.403 3.479,6.185 2.761,10.456 -0.476,2.831 -0.988,7.388 -1.139,10.126 -0.273,4.958 -0.243,4.989 7.158,7.503 4.088,1.389 8.82,3.252 10.515,4.14 2.956,1.547 11.107,10.893 11.107,12.735 0,0.488 -3.184,1.236 -7.076,1.662 -15.479,1.694 -18.1,9.803 -8.037,24.867 16.409,24.566 26.313,48.49 26.378,63.73 0.03,6.813 0.428,9.1 1.325,7.618 3.666,-6.054 -2.902,-31.438 -12.852,-49.666 l -4.007,-7.34 3.823,0.858 c 2.103,0.473 14.465,5.562 27.471,11.309 35.601,15.732 47.829,18.815 70.868,17.868 19.303,-0.793 27.523,-4.472 41.151,-18.419 7.22,-7.388 14.175,-12.675 26.897,-20.444 27.106,-16.555 28.236,-17.989 29.525,-37.457 1.306,-19.725 0.656,-20.795 -14.634,-24.091 -13.07,-2.817 -21.263,-8.762 -23.46,-17.021 -1.174,-4.411 1.296,-4.538 7.885,-0.406 l 4.829,3.028 2.147,-3.028 c 2.823,-3.981 8.823,-3.997 13.806,-0.036 l 3.764,2.991 3.847,-2.991 c 5.978,-4.648 13.928,-3.521 16.172,2.293 0.431,1.117 1.582,0.759 3.913,-1.217 4.368,-3.704 15.563,-5.292 16.772,-2.38 0.461,1.111 -0.415,3.855 -1.948,6.097 -6.514,9.53 -8.551,14.075 -8.636,19.262 -0.118,7.215 2.088,10.696 10.499,16.564 10.217,7.128 13.374,16.324 5.604,16.324 -4.797,0 -9.633,4.138 -12.717,10.881 -6.27,13.705 -5.041,29.071 4.369,54.632 9.557,25.963 10.618,30.751 10.655,48.115 0.032,14.04 -0.331,16.468 -3.605,24.165 -2.002,4.707 -6.063,11.714 -9.025,15.572 l -5.387,7.016 6.916,5.59 c 21.115,17.067 16.795,45.001 -8.623,55.764 -7.776,3.293 -9.719,3.584 -23.346,3.494 -8.175,-0.054 -20.641,-1.103 -27.702,-2.333 -7.199,-1.253 -19.384,-2.26 -27.742,-2.293 -13.279,-0.052 -15.534,0.267 -20.651,2.925 -5.336,2.771 -6.251,4.087 -7.295,10.492 -0.215,1.317 -1.159,2.63 -2.097,2.919 -1.815,0.558 -10.196,-6.539 -11.435,-9.683 -0.611,-1.551 -1.109,-1.444 -2.902,0.624 -1.19,1.374 -2.852,4.53 -3.693,7.014 -2.115,6.247 0.482,10.93 8.008,14.439 l 5.839,2.722 -3.443,2.085 c -7.105,4.301 -19.186,1.359 -23.555,-5.738 -1.236,-2.007 -2.584,-3.653 -2.996,-3.657 -0.411,-0.003 -2.76,1.91 -5.22,4.255 -9.173,8.746 -6.018,21.684 6.252,25.635 6.542,2.106 12.332,0.499 13.536,-3.757 1.839,-6.499 7.556,2.043 6.531,9.758 -0.682,5.129 -0.579,5.307 3.058,5.307 5.059,0 15.825,-6.478 19.156,-11.525 3.867,-5.862 3.586,-15.092 -0.67,-21.972 l -3.343,-5.402 4.372,0.854 c 6.411,1.253 12.639,5.137 15.79,9.848 3.331,4.98 3.689,14.678 0.735,19.91 -2.862,5.072 -2.534,5.877 1.698,4.163 7.197,-2.915 11.045,-6.129 13.931,-11.639 2.599,-4.961 2.744,-6.194 1.337,-11.358 -0.868,-3.186 -2.8,-7.378 -4.293,-9.315 -2.324,-3.017 -2.403,-3.522 -0.551,-3.522 3.449,0 10.65,3.185 13.209,5.841 1.292,1.342 3.176,4.647 4.187,7.344 l 1.837,4.904 2.111,-3.738 c 2.985,-5.286 8.789,-10.042 15.866,-13.002 7.61,-3.184 10.78,-3.363 6.8,-0.385 -2.684,2.008 -7.629,16.167 -6.13,17.551 0.881,0.815 11.214,-6.942 23.013,-17.276 11.16,-9.775 18.173,-12.978 28.424,-12.978 13.094,0 20.718,11.122 14.832,21.638 -3.431,6.131 -11.075,6.982 -15.544,1.732 -2.055,-2.415 -2.62,-4.336 -2.018,-6.868 0.738,-3.102 0.45,-3.516 -2.447,-3.516 -3.806,0 -11.309,4.751 -24.634,15.6 -20.318,16.543 -45.008,30.565 -62.835,35.687 -11.441,3.287 -35.88,4.57 -47.511,2.494 -12.587,-2.248 -27.475,-9.276 -35.585,-16.799 -14.372,-13.332 -14.6,-31.073 -0.607,-47.229 l 4.008,-4.627 -2.713,-4.113 c -3.948,-5.983 -3.61,-14.036 0.838,-19.967 1.959,-2.612 3.935,-4.748 4.392,-4.747 0.456,10e-4 0.956,1.681 1.112,3.732 0.392,5.19 2.675,8.666 6.593,10.043 3.529,1.24 5.81,0.654 21.968,-5.638 16.998,-6.62 44.952,-7.075 74.676,-1.216 14.572,2.873 31.755,2.704 39.314,-0.386 13.858,-5.665 17.07,-20.401 6.883,-31.586 -4.41,-4.843 -8.662,-6.815 -22.94,-10.638 -10.865,-2.91 -13.439,-3.103 -38.134,-2.862 -21.098,0.205 -28.681,-0.19 -37.293,-1.945 -9.35,-1.904 -15.101,-2.096 -42.566,-1.421 l -31.756,0.781 3.522,-2.845 c 1.937,-1.565 4.673,-3.49 6.08,-4.279 2.396,-1.341 2.316,-1.521 -1.244,-2.809 -2.092,-0.757 -6.736,-1.376 -10.319,-1.376 h -6.515 l -0.877,-5.402 c -0.482,-2.972 -0.446,-6.441 0.081,-7.709 0.777,-1.871 0.487,-2.14 -1.534,-1.423 -1.37,0.486 -5.186,1.441 -8.48,2.123 -3.294,0.682 -7.728,2.071 -9.853,3.087 -3.574,1.708 -3.971,1.662 -5.288,-0.611 -1.175,-2.03 -12.211,-10.044 -13.831,-10.044 -0.261,0 -0.598,1.545 -0.749,3.434 -0.151,1.889 -1.743,6.805 -3.538,10.926 -1.796,4.121 -3.67,8.616 -4.165,9.989 -0.748,2.072 -1.087,2.179 -1.989,0.625 -0.598,-1.031 -1.471,-3.84 -1.94,-6.244 -0.469,-2.403 -2.132,-6.308 -3.695,-8.677 l -2.843,-4.307 -1.813,3.683 c -1.946,3.953 -5.178,8.053 -6.347,8.053 -0.395,0 -1.068,-1.264 -1.495,-2.81 -0.892,-3.226 -8.554,-12.174 -10.425,-12.174 -0.689,0 -1.253,2.529 -1.253,5.619 0,3.09 -0.608,5.619 -1.351,5.619 -0.744,0 -1.352,-0.8 -1.352,-1.777 0,-2.376 -6.543,-9.461 -8.738,-9.461 -0.957,0 -2.498,-0.843 -3.423,-1.873 -2.413,-2.686 -4.386,-2.309 -3.372,0.644 0.476,1.384 0.166,4.615 -0.687,7.18 -0.854,2.564 -1.761,5.294 -2.017,6.065 -0.322,0.972 -2.667,0.714 -7.63,-0.838 -8.019,-2.509 -10.707,-2.065 -6.583,1.087 1.508,1.152 3.801,5.143 5.096,8.869 1.296,3.725 3.207,7.031 4.247,7.346 1.457,0.441 1.38,-0.104 -0.337,-2.37 -1.227,-1.618 -2.234,-3.799 -2.239,-4.848 0,-1.05 -0.927,-3.537 -2.051,-5.527 -1.123,-1.991 -1.83,-3.817 -1.569,-4.057 0.26,-0.241 3.312,0.89 6.781,2.513 l 6.307,2.951 0.026,-2.64 c 0.014,-1.452 0.774,-5.282 1.689,-8.511 l 1.663,-5.872 4.293,1.926 c 4.388,1.967 8.544,8.982 8.544,14.421 0,2.689 1.578,2.276 2.225,-0.581 0.19,-0.839 1.18,-3.986 2.202,-6.995 l 1.857,-5.469 2.939,3.453 c 1.617,1.9 3.644,5.625 4.504,8.279 1.494,4.608 3.84,6.588 3.84,3.243 0,-2.411 6.744,-11.059 8.044,-10.316 0.629,0.359 1.881,3.605 2.783,7.213 1.874,7.502 4.899,12.605 6.821,11.507 0.723,-0.413 1.004,-1.214 0.626,-1.78 -0.379,-0.566 1.174,-5.444 3.451,-10.84 2.277,-5.395 4.564,-10.827 5.081,-12.071 0.832,-1.999 1.584,-1.709 6.465,2.497 3.038,2.618 5.795,5.548 6.127,6.512 0.502,1.457 1.179,1.403 4.02,-0.316 3.972,-2.406 17.328,-6.281 18.359,-5.328 0.386,0.357 0.782,3.78 0.88,7.606 l 0.178,6.956 3.841,-0.777 c 2.112,-0.428 6.554,-0.402 9.87,0.058 l 6.029,0.836 -5.373,3.596 c -2.956,1.979 -5.944,4.539 -6.641,5.69 -0.742,1.225 -3.373,2.266 -6.352,2.513 -8.051,0.668 -22.319,8.476 -22.319,12.214 0,0.702 1.976,-0.491 4.391,-2.651 5.359,-4.792 12.804,-7.8 19.305,-7.8 h 4.865 l -3.01,3.905 c -1.728,2.244 -3.279,6.499 -3.643,10.001 -0.58,5.58 -1.184,6.467 -7.156,10.518 -3.588,2.434 -8.031,6.081 -9.875,8.105 l -3.351,3.681 -1.71,-4.37 c -0.941,-2.404 -2.09,-4.37 -2.555,-4.37 -0.464,0 -2.272,1.405 -4.018,3.121 -1.745,1.717 -3.523,3.116 -3.951,3.108 -0.428,-0.007 -1.975,-2.321 -3.436,-5.139 l -2.659,-5.125 -2.054,2.954 c -1.13,1.624 -3.798,4.499 -5.93,6.388 -2.132,1.888 -3.253,3.433 -2.492,3.433 0.761,0 3.393,-1.967 5.847,-4.372 l 4.463,-4.372 1.816,3.203 c 1.078,1.901 1.482,4.821 0.994,7.182 -0.712,3.441 -0.612,3.641 0.74,1.481 0.86,-1.374 3.471,-4.007 5.802,-5.852 l 4.238,-3.354 2.925,5.227 c 2.911,5.202 2.932,5.213 4.256,2.106 1.771,-4.155 14.589,-14.406 25.501,-20.396 1.682,-0.923 0.973,2.251 -2.133,9.551 -0.823,1.934 -1.496,5.419 -1.496,7.745 0,3.452 -1.021,4.988 -5.545,8.348 -6.532,4.849 -8.644,8.298 -9.875,16.122 -0.499,3.17 -1.642,6.695 -2.54,7.834 -1.333,1.69 -1.554,0.744 -1.197,-5.138 0.24,-3.965 -0.288,-8.895 -1.175,-10.955 l -1.611,-3.746 -1.246,3.122 c -0.685,1.716 -3.715,4.702 -6.734,6.635 -3.019,1.932 -5.138,3.838 -4.709,4.234 0.43,0.397 3.535,-1.364 6.902,-3.913 5.128,-3.884 6.258,-4.304 6.968,-2.594 0.835,2.01 -10e-4,10.754 -1.613,16.864 -0.805,3.052 -0.734,3.035 3.124,-0.728 2.845,-2.776 4.418,-6.087 5.637,-11.862 1.548,-7.338 2.33,-8.559 9.284,-14.517 4.176,-3.578 7.81,-6.304 8.076,-6.059 0.265,0.246 0.792,9.501 1.171,20.567 0.725,21.219 -0.095,26.269 -5.333,32.825 l -2.691,3.368 4.231,4.453 c 5.519,5.808 8.053,10.463 9.152,16.815 l 0.894,5.167 -4.774,-4.412 c -3.91,-3.612 -5.777,-4.411 -10.305,-4.411 -4.483,0 -6.235,0.733 -9.256,3.874 -3.625,3.769 -10.049,7.395 -16.226,9.16 -2.282,0.652 -3.04,0.368 -3.04,-1.138 0,-1.104 -1.261,-4.29 -2.802,-7.08 l -2.8,-5.073 -5.869,5.659 c -3.6,3.472 -7.872,6.174 -11.05,6.989 -8.12,2.084 -8.559,1.877 -8.559,-4.025 0,-8.953 -3.918,-10.621 -10.969,-4.671 -5.375,4.537 -9.834,5.523 -20.027,4.43 l -7.872,-0.844 1.417,-3.468 c 1.183,-2.896 0.916,-4.116 -1.618,-7.405 -4.112,-5.335 -9.457,-7.646 -17.686,-7.646 -3.79,0 -8.533,-0.765 -10.54,-1.701 -2.007,-0.935 -6.993,-2.012 -11.081,-2.394 -4.088,-0.382 -8.445,-1.063 -9.682,-1.514 -1.936,-0.706 -2.149,-0.124 -1.525,4.172 0.954,6.576 -3.753,11.426 -11.09,11.426 -9.519,0 -13.909,-8.307 -10.181,-19.266 0.717,-2.109 1.656,-5.435 2.086,-7.391 0.446,-2.029 4.733,-7.415 9.985,-12.542 5.062,-4.942 9.846,-10.084 10.632,-11.427 0.785,-1.343 3.381,-3.498 5.769,-4.789 l 4.342,-2.348 -0.572,4.533 c -0.63,4.982 0.483,5.763 3.199,2.248 0.971,-1.257 3.438,-3.288 5.482,-4.514 3.22,-1.931 3.716,-1.971 3.716,-0.294 0,1.065 0.656,3.517 1.459,5.451 l 1.458,3.515 2.531,-4.783 c 1.392,-2.63 5.918,-8.609 10.058,-13.285 8.034,-9.074 12.929,-19.214 10.403,-21.548 -1.025,-0.947 -3.795,-0.873 -9.536,0.252 -4.45,0.873 -9.954,1.334 -12.232,1.026 -4.651,-0.631 -5.018,-0.045 -2.157,3.449 3.019,3.689 2.539,4.297 -3.392,4.297 -6.862,0 -23.898,3.21 -30.438,5.734 -6.359,2.455 -7.826,1.844 -9.698,-4.04 -0.842,-2.649 -2.384,-7.448 -3.427,-10.665 l -1.896,-5.849 6.88,0.647 c 3.784,0.355 8.651,1.164 10.815,1.796 2.165,0.633 4.132,0.969 4.372,0.747 0.239,-0.222 -0.725,-2.507 -2.144,-5.079 l -2.58,-4.675 4.289,0.853 c 2.36,0.469 5.909,1.617 7.888,2.551 3.443,1.626 3.72,1.508 6.436,-2.746 3.34,-5.231 6.012,-5.016 6.605,0.531 0.613,5.735 2.546,4.887 6.183,-2.713 3.498,-7.307 7.136,-9.887 7.836,-5.555 0.232,1.438 2.116,3.779 4.186,5.203 4.189,2.879 7.345,2.015 9.155,-2.505 1.873,-4.679 -2.305,-9.502 -14.457,-16.689 -24.342,-14.397 -38.492,-34.088 -42.531,-59.185 -3.644,-22.637 7.736,-46.029 30.565,-62.83 10.925,-8.04 28.28,-16.526 27.177,-13.288 -4.684,13.751 -4.529,39.988 0.261,44.414 0.719,0.664 0.472,-2.073 -0.549,-6.084 C 28.001,104.028 29.653,92.124 39.404,64.226 48.222,38.994 47.002,28.21 34.521,21.082 30.512,18.792 27.931,18.415 17.153,18.543 5.458,18.681 4.184,18.452 0.429,15.533 -3.211,12.702 -7.93,3.41 -7.93,-0.926 c 0,-2.349 2.673,-2.038 7.927,0.921 z"
         style="fill:#ffc700;fill-opacity:1;fill-rule:nonzero;stroke:none"
         transform="matrix(1.3333333,0,0,-1.3333333,894.696,733.94773)" />
    <path
         id="path37"
         d="M 0,0 4.906,3.076 8.235,0 c 4.362,-4.03 9.471,-3.94 13.664,0.241 1.83,1.825 3.473,3.089 3.652,2.809 0.178,-0.279 0.994,-1.631 1.813,-3.005 1.037,-1.738 3.168,-2.613 7.015,-2.877 4.635,-0.319 5.88,0.118 7.721,2.715 l 2.196,3.097 4.829,-3.028 c 13.221,-8.291 20.265,0.407 14.357,17.727 -3.004,8.807 -1.352,13.758 8.331,24.967 4.083,4.727 7.427,9.772 7.431,11.211 0,2.295 -0.755,2.602 -6.19,2.497 -5.2,-0.101 -6.721,0.444 -9.459,3.384 -4.452,4.782 -4.187,10.258 0.79,16.336 l 3.975,4.854 -7.053,4.671 c -3.88,2.569 -10.876,8.647 -15.548,13.506 -10.492,10.914 -20.807,16.089 -34.411,17.263 l -9.121,0.787 0.014,-6.736 C 2.258,101.748 6.429,93.406 17.814,79.275 30.76,63.21 31.663,60.722 32.188,39.723 L 32.631,21.964 28.885,18.497 C 25.501,15.363 23.974,14.963 13.052,14.349 2.654,13.764 0.469,13.24 -2.582,10.603 -6.635,7.1 -7.847,5.195 -9.098,0.357 c -0.73,-2.819 -0.434,-3.434 1.651,-3.434 1.397,0 4.748,1.385 7.446,3.077 z"
         style="fill:#ffc700;fill-opacity:1;fill-rule:nonzero;stroke:none"
         transform="matrix(1.3333333,0,0,-1.3333333,1147.8029,733.26893)" />
    <path
         id="path38"
         d="m 0,0 c 0,2.245 1.028,2.844 6.085,3.545 l 6.086,0.843 -4.059,3.156 c -4.821,3.749 -5.267,6.678 -1.018,6.684 4.233,0 11.401,4.288 12.491,7.461 0.506,1.475 0.187,3.445 -0.721,4.457 -2.373,2.641 -6.834,2.243 -7.662,-0.685 C 10.311,22.314 8.82,22.306 5.439,25.43 0.354,30.129 0.24,39.857 5.203,45.521 c 2.34,2.669 2.319,2.844 -0.663,5.6 -3.209,2.965 -5.5,8.833 -3.993,10.226 0.48,0.443 3.014,0.09 5.633,-0.785 3.721,-1.244 5.19,-1.262 6.722,-0.086 4.644,3.56 -0.387,8.139 -7.833,7.129 -2.997,-0.406 -4.235,0 -4.665,1.517 -0.326,1.15 -2.947,2.653 -5.9,3.381 -5.277,1.302 -5.315,1.286 -5.315,-2.262 0,-3.887 -2.274,-4.62 -6.595,-2.127 -3.512,2.027 -6.918,0.454 -6.918,-3.195 0,-3.404 3.509,-5.083 9.797,-4.688 4.823,0.304 5.003,-3.196 0.422,-8.226 l -3.294,-3.618 2.61,-3.658 c 3.865,-5.417 3.539,-14.415 -0.683,-18.884 l -3.31,-3.503 -2.172,2.809 c -3.018,3.904 -7.146,3.643 -8.278,-0.525 -0.741,-2.729 -0.128,-3.976 3.374,-6.867 2.354,-1.944 5.79,-3.534 7.637,-3.534 4.569,0 4.39,-3.505 -0.36,-7.047 l -3.716,-2.771 5.743,-0.869 c 3.159,-0.478 5.743,-1.378 5.743,-1.999 0,-2.381 1.488,-9.609 5.26,-9.789 C -2.183,-8.412 -0.079,-3.414 0,0 Z"
         style="fill:#ffc700;fill-opacity:1;fill-rule:nonzero;stroke:none"
         transform="matrix(1.3333333,0,0,-1.3333333,779.62267,664.7668)" />
    <path
         id="path39"
         d="m 0,0 c 5.218,2.007 16.51,11.336 16.51,13.642 0,0.724 -3.117,4.069 -6.927,7.432 -8.016,7.078 -16.737,18.996 -18.996,25.965 -1.178,3.633 -6.871,9.854 -22.907,25.028 l -21.338,20.192 -6.15,-1.52 c -3.383,-0.836 -7.51,-1.54 -9.171,-1.565 -2.864,-0.042 -2.812,-0.202 0.995,-3.077 l 4.017,-3.033 5.63,3.049 c 5.458,2.956 5.653,2.974 6.326,0.596 0.394,-1.393 -0.456,-3.806 -1.965,-5.579 -1.463,-1.718 -2.296,-3.668 -1.852,-4.332 0.444,-0.664 -0.961,-2.053 -3.123,-3.086 -4.007,-1.914 -6.788,-8.217 -3.626,-8.217 2.845,0 9.117,7.552 8.395,10.106 -0.371,1.308 -0.191,2.653 0.398,2.99 2.443,1.395 2.29,-4.534 -0.192,-7.45 -1.463,-1.719 -2.296,-3.668 -1.852,-4.332 0.444,-0.664 -0.961,-2.053 -3.123,-3.086 -3.981,-1.902 -6.79,-8.217 -3.656,-8.217 3.073,0 9.243,7.216 8.478,9.916 -0.399,1.412 -0.244,2.843 0.344,3.179 1.646,0.94 2.534,-3.74 1.145,-6.034 -0.744,-1.228 -0.738,-2.905 0.017,-4.235 1.367,-2.409 -0.019,-7.036 -2.537,-8.475 -1.08,-0.616 -0.349,-1.826 2.27,-3.755 3.789,-2.792 3.862,-3.085 3.862,-15.405 0,-10.296 0.426,-12.953 2.365,-14.745 2.176,-2.012 2.365,-2.019 2.365,-0.09 0,2.106 3.79,4.681 6.89,4.681 0.915,0 6.628,-4.724 12.697,-10.499 6.105,-5.81 12.494,-10.753 14.304,-11.068 1.798,-0.313 3.745,-0.645 4.326,-0.739 0.581,-0.093 3.317,0.7 6.081,1.762 z"
         style="fill:#ffc700;fill-opacity:1;fill-rule:nonzero;stroke:none"
         transform="matrix(1.3333333,0,0,-1.3333333,876.52453,629.9036)" />
    <path
         id="path40"
         d="m 0,0 c 0,3.319 -7.017,6.862 -15.41,7.78 -6.776,0.742 -6.887,0.7 -6.887,-2.603 0,-2.733 1.066,-3.809 5.743,-5.796 C -9.038,-3.812 0,-3.474 0,0 Z"
         style="fill:#ffc700;fill-opacity:1;fill-rule:nonzero;stroke:none"
         transform="matrix(1.3333333,0,0,-1.3333333,789.5352,563.49133)" />
    <path
         id="path41"
         d="M 0,0 C 3.423,3.03 5.044,6.634 2.985,6.634 0.617,6.634 -5.669,1.131 -5.669,-0.943 -5.669,-4.179 -4.501,-3.985 0,0 Z"
         style="fill:#ffc700;fill-opacity:1;fill-rule:nonzero;stroke:none"
         transform="matrix(1.3333333,0,0,-1.3333333,799.78973,563.084)" />
    <path
         id="path42"
         d="m 0,0 c 0.29,1.873 -0.897,3.122 -4.456,4.69 -7.676,3.383 -16.853,4.949 -19.063,3.254 -4.071,-3.121 -1.358,-7.313 5.221,-8.067 2.648,-0.304 6.24,-1.092 7.981,-1.752 C -5.261,-3.791 -0.452,-2.917 0,0"
         style="fill:#ffc700;fill-opacity:1;fill-rule:nonzero;stroke:none"
         transform="matrix(1.3333333,0,0,-1.3333333,790.064,549.99707)" />
    <path
         id="path43"
         d="M 0,0 C 0.413,2.671 -1.337,3.627 -15.63,8.536 -26.3,12.2 -31.024,10.472 -27.614,4.152 -26.426,1.95 -24.432,0.944 -19.961,0.291 -16.635,-0.195 -12.09,-1.145 -9.86,-1.821 -3.904,-3.625 -0.462,-2.989 0,0 Z"
         style="fill:#ffc700;fill-opacity:1;fill-rule:nonzero;stroke:none"
         transform="matrix(1.3333333,0,0,-1.3333333,790.064,536.62493)" />
    <path
         id="path44"
         d="m 0,0 c 2.157,2.133 3.921,4.65 3.921,5.593 0,3.061 -8.517,-2.354 -9.603,-6.104 C -6.984,-5.01 -4.873,-4.821 0,0 Z"
         style="fill:#ffc700;fill-opacity:1;fill-rule:nonzero;stroke:none"
         transform="matrix(1.3333333,0,0,-1.3333333,799.60893,524.09467)" />
    <path
         id="path45"
         d="M 0,0 C 0.47,3.043 -4.717,5.791 -14.916,7.903 -22.4,9.453 -25.7,8.574 -25.14,5.181 -24.834,3.329 -22.342,1.976 -15.272,-0.177 -3.957,-3.622 -0.554,-3.583 -0.001,0 Z"
         style="fill:#ffc700;fill-opacity:1;fill-rule:nonzero;stroke:none"
         transform="matrix(1.3333333,0,0,-1.3333333,790.064,523.25293)" />
    <path
         id="path46"
         d="m 0,0 c 13.07,5.677 14.2,19.992 1.876,23.75 -5.117,1.561 -8.384,0.72 -10.343,-2.662 -1.5,-2.59 -0.497,-7.298 1.555,-7.298 0.693,0 1.26,-0.872 1.26,-1.937 0,-4.97 -19.955,-7.223 -28.139,-3.175 -2.875,1.421 -4.127,5.112 -1.734,5.112 1.788,0 3.024,3.761 2.111,6.42 -1.245,3.624 -4.988,4.88 -10.418,3.494 C -56.083,20.579 -55.739,6.533 -43.266,0.573 -33.038,-4.315 -10.616,-4.612 0,-0.001 Z"
         style="fill:#ffc700;fill-opacity:1;fill-rule:nonzero;stroke:none"
         transform="matrix(1.3333333,0,0,-1.3333333,803.3656,504.3692)" />
    <path
         id="path47"
         d="m 0,0 c 0.757,0.699 0.428,1.774 -0.841,2.747 -2.779,2.131 -2.63,5.3 0.417,8.929 2.289,2.724 2.575,6.801 3.363,47.929 1.358,70.877 6.759,124.187 13.879,136.976 2.835,5.091 2.437,5.112 -4.888,0.249 C 2.495,190.566 -4.689,182.41 -11.055,170.733 -23.072,148.689 -27.248,119.03 -27.248,55.72 c 0,-35.947 0.251,-40.65 2.349,-44.029 1.994,-3.21 2.1,-4.395 0.699,-7.823 -0.907,-2.222 -1.319,-4.346 -0.915,-4.72 2.683,-2.479 22.23,-1.821 25.115,0.846 z"
         style="fill:#ffc700;fill-opacity:1;fill-rule:nonzero;stroke:none"
         transform="matrix(1.3333333,0,0,-1.3333333,792.52667,489.69387)" />
    <path
         id="path48"
         d="m 0,0 c 0.409,0.612 -0.495,3.702 -2.01,6.868 -2.362,4.934 -3.314,5.754 -6.679,5.754 -10.542,0 -27.488,4.597 -44.959,12.194 -10.088,4.387 -13.573,5.396 -14.782,4.278 -3.087,-2.853 2.043,-9.623 9.988,-13.182 7.048,-3.157 26.751,-7.036 35.739,-7.036 5.214,0 5.337,-0.23 2.37,-4.414 l -2.182,-3.078 5.898,-0.148 C -13.373,1.155 -8.894,0.66 -6.665,0.135 -0.874,-1.226 -0.82,-1.227 0.001,0 Z"
         style="fill:#ffc700;fill-opacity:1;fill-rule:nonzero;stroke:none"
         transform="matrix(1.3333333,0,0,-1.3333333,938.94213,399.57827)" />
    <path
         id="path49"
         d="m 0,0 c 0,1.832 -5.514,6.797 -11.101,9.995 -4.388,2.513 -5.113,2.589 -5.123,0.54 -0.014,-3.111 -2.849,-10.926 -3.963,-10.926 -0.628,0 -1.556,1.527 -2.063,3.394 -0.507,1.866 -2.634,5.545 -4.727,8.174 l -3.805,4.781 -2.962,-4.429 c -2.762,-4.13 -7.547,-8.174 -9.67,-8.174 -0.507,0 -0.606,2.175 -0.221,4.833 0.42,2.888 0.096,5.179 -0.804,5.692 -0.828,0.473 -1.506,0.308 -1.506,-0.366 0,-1.556 -6.644,-8.91 -8.05,-8.91 -0.579,0 -1.39,2.107 -1.802,4.682 -0.412,2.576 -1.112,6.649 -1.555,9.053 -0.444,2.404 0.502,0.774 2.102,-3.622 l 2.91,-7.993 3.191,4.871 c 1.755,2.679 3.194,5.606 3.198,6.505 0,0.899 0.597,1.298 1.319,0.886 0.721,-0.413 1.726,-3.633 2.232,-7.157 l 0.919,-6.406 3.512,3.756 c 1.931,2.065 4.193,4.831 5.028,6.146 1.489,2.345 1.574,2.343 4.536,-0.108 1.66,-1.373 4.212,-4.659 5.671,-7.301 1.459,-2.641 2.848,-4.608 3.087,-4.37 0.239,0.238 0.773,2.962 1.188,6.052 0.415,3.091 0.786,5.734 0.823,5.874 0.207,0.766 10.576,-5.811 14.414,-9.141 2.466,-2.141 4.808,-3.592 5.204,-3.226 0.397,0.367 0.721,3.524 0.721,7.018 0,5.413 -0.588,6.864 -3.982,9.824 -3.902,3.402 -4.011,3.421 -5.453,0.932 -1.871,-3.231 -4.078,-3.277 -4.078,-0.086 0,2.329 -7.374,11.281 -9.292,11.281 -0.497,0 -2.05,-1.966 -3.451,-4.37 -1.401,-2.404 -2.907,-4.368 -3.348,-4.365 -1.891,0.011 -12.286,11.319 -12.281,13.36 0,1.624 0.7,1.208 2.523,-1.503 1.385,-2.06 4.151,-5.136 6.147,-6.835 4.041,-3.44 5.511,-2.603 7.07,4.026 0.445,1.888 1.217,3.433 1.716,3.433 1.728,0 10.777,-9.377 12.05,-12.486 l 1.278,-3.122 0.968,3.434 c 1.183,4.199 2.489,4.355 4.378,0.523 0.789,-1.6 4.688,-4.928 8.663,-7.395 l 7.227,-4.484 1.451,4.51 c 0.798,2.481 1.854,3.907 2.348,3.169 0.737,-1.102 -1.142,-8.576 -2.559,-10.184 -0.213,-0.241 -2.555,1.09 -5.205,2.957 L 4.055,16.138 4.036,10.059 C 4.022,6.715 3.651,2.715 3.203,1.17 2.326,-1.851 0,-2.701 0,0 Z"
         style="fill:#000000;fill-opacity:1;fill-rule:nonzero;stroke:none"
         transform="matrix(1.3333333,0,0,-1.3333333,1021.0477,442.16533)" />
    <path
         id="path50"
         d="m 0,0 c -8.59,6.997 -9.894,8.599 -9.704,11.915 l 0.203,3.53 0.56,-3.41 c 0.328,-1.991 2.615,-4.974 5.498,-7.17 L 1.495,1.104 4.529,4.528 c 1.669,1.884 3.057,4.127 3.083,4.985 0.071,2.239 0.482,2.051 6.298,-2.873 5.167,-4.374 5.247,-4.395 6.016,-1.56 0.428,1.58 0.276,4.555 -0.338,6.61 -1.688,5.651 -1.358,6.504 1.201,3.096 1.274,-1.698 3.324,-4.099 4.554,-5.334 2.142,-2.152 2.273,-2.125 3.069,0.624 0.458,1.579 0.841,4.469 0.851,6.423 l 0.019,3.552 4.659,-5.153 c 4.352,-4.813 4.753,-4.991 6.081,-2.697 0.782,1.35 1.431,4.599 1.443,7.219 0.014,3.386 0.38,4.24 1.262,2.951 1.474,-2.153 0.451,-8.013 -2.27,-13.007 L 38.504,5.78 35.94,9.676 C 32.662,14.657 31.57,14.577 29.466,9.201 27.478,4.121 26.185,3.734 24.248,7.641 22.995,10.169 22.756,9.859 21.866,4.548 L 20.877,-1.354 14.951,3.133 9.025,7.62 6.362,4.665 C 4.896,3.039 3.677,1.007 3.653,0.149 3.599,-1.712 2.173,-1.77 0.001,0 Z"
         style="fill:#000000;fill-opacity:1;fill-rule:nonzero;stroke:none"
         transform="matrix(1.3333333,0,0,-1.3333333,973.0032,377.54507)" />
    <path
         id="path51"
         d="m 0,0 c -3.127,2.748 -5.281,5.37 -4.786,5.827 0.494,0.457 1.05,0.587 1.236,0.291 C -3.364,5.821 -0.809,3.199 2.129,0.291 8.893,-6.405 7.503,-6.595 0,0 Z"
         style="fill:#000000;fill-opacity:1;fill-rule:nonzero;stroke:none"
         transform="matrix(1.3333333,0,0,-1.3333333,1074.8804,342.7912)" />
    <path
         id="path52"
         d="m 0,0 c -2.844,3.752 -2.648,6.238 0.814,10.305 2.502,2.939 3.645,3.338 8.013,2.796 2.803,-0.347 8.833,-2.763 13.4,-5.368 C 27.503,4.724 32.96,2.708 37.187,2.207 40.846,1.773 43.84,1.61 43.84,1.844 c 0,0.234 -1.52,2.65 -3.378,5.37 -4.412,6.459 -4.261,7.152 0.716,3.282 5.108,-3.972 11.219,-5.133 24.873,-4.729 l 6.672,0.198 -3.871,3.733 c -5.412,5.221 -3.746,5.689 2.231,0.627 C 76.689,5.578 76.338,5.243 64.539,4.094 59.525,3.606 54.132,3.96 49.65,5.072 42.945,6.736 42.685,6.711 43.955,4.517 44.687,3.254 45.873,2.219 46.59,2.219 c 0.717,0 1.303,-0.64 1.303,-1.423 0,-2.407 -14.483,-0.29 -21.403,3.129 C 10.679,11.735 8.689,12.412 4.926,11.255 2.832,10.611 0.736,8.726 0.013,6.838 -2.396,0.538 6.761,-4.359 10.538,1.21 11.632,2.824 11.377,3.928 9.453,5.892 6.818,8.583 7.065,8.966 10.622,7.705 13.147,6.809 13.487,0.894 11.138,-1.277 8.45,-3.76 2.316,-3.057 -0.001,0 Z"
         style="fill:#000000;fill-opacity:1;fill-rule:nonzero;stroke:none"
         transform="matrix(1.3333333,0,0,-1.3333333,939.17867,329.10693)" />
    <path
         id="path53"
         d="m 0,0 c -1.977,1.827 -0.427,2.274 8.437,2.436 10.965,0.199 17.625,1.982 25.483,6.822 6.296,3.878 8.003,3.115 2.027,-0.906 C 30.495,4.684 21.993,1.864 13.783,1.002 9.808,0.584 5.278,0.006 3.716,-0.284 2.154,-0.573 0.482,-0.445 0,0 Z"
         style="fill:#000000;fill-opacity:1;fill-rule:nonzero;stroke:none"
         transform="matrix(1.3333333,0,0,-1.3333333,1022.2165,308.3632)" />
  </g>
</svg>
