<?xml version="1.0" encoding="utf-8"?>
<!-- Generator: Adobe Illustrator 16.0.0, SVG Export Plug-In . SVG Version: 6.00 Build 0)  -->
<!DOCTYPE svg PUBLIC "-//W3C//DTD SVG 1.1//EN" "http://www.w3.org/Graphics/SVG/1.1/DTD/svg11.dtd">
<svg version="1.1" id="Layer_1" xmlns="http://www.w3.org/2000/svg" xmlns:xlink="http://www.w3.org/1999/xlink" x="0px" y="0px"
	 width="1129.961px" height="1028.066px" viewBox="0 0 1129.961 1028.066" enable-background="new 0 0 1129.961 1028.066"
	 xml:space="preserve">
<g>
	
		<line fill="none" stroke="#000000" stroke-width="40" stroke-miterlimit="10" x1="438.983" y1="380.999" x2="438.983" y2="624.176"/>
	
		<line fill="none" stroke="#000000" stroke-width="40" stroke-miterlimit="10" x1="560.572" y1="498.368" x2="317.395" y2="498.368"/>
</g>
<g>
	<path fill-rule="evenodd" clip-rule="evenodd" stroke="#000000" stroke-width="31" stroke-miterlimit="10" d="M492.163,806.381
		c2.229-12.093,3.578-24.432,6.838-36.239c11.902-43.115,37.121-76.791,74.5-101.18c33.807-22.059,71.196-31.082,111.234-27.552
		c43.412,3.825,80.607,21.718,111.106,52.907c23.594,24.128,39.179,52.813,46.138,85.865c9.278,44.093,3.033,86.064-19.441,125.171
		c-22.254,38.731-54.786,65.561-97.148,79.783c-42.952,14.419-85.673,12.691-127.073-5.67
		c-47.661-21.14-80.14-56.918-96.849-106.311c-4.211-12.466-5.654-25.861-8.354-38.836c-0.374-1.805-0.636-3.633-0.951-5.452
		C492.163,821.373,492.163,813.879,492.163,806.381z M515.913,817.611c0.07,84.177,68.689,152.801,153.029,153.049
		c84.258,0.254,153.657-69.002,153.485-153.16c-0.17-84.435-69.505-153.511-153.594-153.036
		C584.285,664.946,515.833,733.499,515.913,817.611z"/>
	<path fill-rule="evenodd" clip-rule="evenodd" stroke="#000000" stroke-width="31" stroke-miterlimit="10" d="M1014.634,612.183
		c-2.187,8.479-3.729,17.19-6.675,25.394c-15.764,43.907-61.656,72.265-107.167,66.604c-48.711-6.063-86.083-43.517-91.037-91.237
		c-6.329-60.938,41.137-113.856,102.092-113.818c50.621,0.032,94.017,37.429,101.595,87.52c0.218,1.419,0.788,2.786,1.192,4.174
		C1014.634,597.94,1014.634,605.063,1014.634,612.183z M911.711,523.024c-43.552,0.119-79.116,35.716-78.963,79.039
		c0.157,43.491,35.717,78.859,79.217,78.784c43.513-0.074,79.037-35.645,78.926-79.041
		C990.781,558.332,955.175,522.909,911.711,523.024z"/>
	<path fill-rule="evenodd" clip-rule="evenodd" stroke="#000000" stroke-width="31" stroke-miterlimit="10" d="M687.792,583.809
		c-38.829,0.021-70.488-31.428-70.693-70.215c-0.202-38.902,31.725-70.778,70.778-70.667c38.84,0.11,70.519,31.81,70.427,70.472
		C758.208,552.16,726.533,583.791,687.792,583.809z M734.291,514.142c0.798-25.002-19.539-46.42-44.979-47.366
		c-25.963-0.966-47.59,19.047-48.2,45.803c-0.573,25.389,18.809,46.323,45.512,47.467
		C711.922,561.132,733.45,540.313,734.291,514.142z"/>
	<path fill-rule="evenodd" clip-rule="evenodd" stroke="#000000" stroke-width="20" stroke-miterlimit="10" d="M675.263,706.709
		c53.079,2.823,98.257,44.168,104.234,99.456c0.385,3.533,0.541,7.108,0.482,10.658c-0.12,7.156-4.642,12.058-11.146,12.378
		c-6.772,0.331-11.361-4.342-12.502-11.714c-1.568-10.116-2.138-20.747-5.808-30.115c-13.356-34.096-38.81-53.038-75.446-56.598
		c-2.232-0.215-4.484-0.346-6.707-0.664c-6.619-0.952-10.837-5.411-10.935-11.437c-0.095-6.163,4.396-11.092,11.114-11.925
		C670.753,706.475,673.025,706.709,675.263,706.709z"/>
	<path fill-rule="evenodd" clip-rule="evenodd" stroke="#000000" stroke-width="5" stroke-miterlimit="10" d="M924.591,652.444
		c-34.485-1.863-62.214-29.723-63.126-63.417c-0.234-8.775,3.9-14.277,11.094-14.738c6.902-0.44,11.821,4.823,12.642,13.541
		c1.924,20.341,13.04,34.109,32.009,39.362c3.206,0.89,6.623,1.046,9.938,1.565c8.548,1.342,12.811,5.98,12.11,13.147
		C938.585,648.762,932.836,652.895,924.591,652.444z"/>
</g>
<g display="none">
	<path display="inline" fill-rule="evenodd" clip-rule="evenodd" d="M313.563,730.125c0-124.29,0-247.435,0-372.263l0,0l0,0
		l0.667-48.822l0,0c0-17.385,0-33.498,0-49.61c0.001-25.572,0.36-51.154-0.136-76.712c-0.289-14.924,4.782-24.207,15.525-30.67
		c24.291-14.61,48.413-29.666,72.387-45.047c52.74-33.839,105.346-67.994,158.007-102.018c3.964,0,7.929,0,11.894,0
		c45.134,28.45,90.351,56.707,135.372,85.421c32.67,20.836,65.046,42.366,97.629,63.407c8.845,5.711,12.881,14.275,12.833,26.502
		c-0.148,38.153-0.052,76.307-0.05,114.461c0,4.351,0,8.704,0,14.32l0.654,48.563l0,0c0.325,13.167,0,0,0,0l0,0
		c0,168.685-0.655,323.056-0.655,403.688l0,0l0,0l0,0l0,0c0,0-0.005,27.355-0.005,31.714c0,67.784,0.018,135.569-0.009,203.353
		c-0.009,23.336-6.708,31.581-25.6,31.64c-14.174,0.046-28.349,0.01-44.171,0.01l0,0l0,0l0,0l0,0H384.007l0,0l0,0
		c-15.701,0-30.472,0.067-45.242-0.019c-17.496-0.098-24.508-8.778-24.52-30.494c-0.04-68.19-0.016-136.38-0.016-204.57
		c0-4.354,0-8.709,0-14.264 M354.679,728.929c4.344,0.247,8.203,0.654,12.062,0.661c33.689,0.051,67.379,0.026,101.068,0.034
		c2.973,0,5.951-0.089,8.917,0.09c12.898,0.775,21.511,10.507,21.633,24.343c0.125,14.121-8.955,24.92-22.215,25.027
		c-36.661,0.297-73.326,0.097-109.989,0.152c-3.805,0.005-7.61,0.396-11.479,0.613c0,31.289,0,61.143,0,91.635
		c141.041,0,281.549,0,422.442,0c0-30.842,0-61.01,0-92.277c-4.23,0-7.807,0-11.381,0c-35.012,0-70.023,0.044-105.035-0.061
		c-3.928-0.01-7.984-0.218-11.752-1.416c-9.681-3.085-15.404-13.536-14.559-25.563c0.81-11.528,7.455-20.304,16.98-21.94
		c3.577-0.613,7.244-0.578,10.872-0.582c34.351-0.041,68.702-0.003,103.052-0.06c3.846-0.005,7.689-0.455,11.932-0.724
		c0-123.889,0-246.637,0-369.972c-141.057,0-281.563,0-422.548,0C354.679,482.339,354.679,605.096,354.679,728.929z M354.68,307.958
		c141.033,0,281.542,0,422.549,0c0-35.401,0-70.068,0-105.481c-141.036,0-281.524,0-422.549,0
		C354.68,237.918,354.68,272.584,354.68,307.958z M777.301,982.521l0.106-47.438c-141.389,0-281.48,0-422.188,0
		c0,15.641-0.051,30.788-0.051,47.438 M709.509,150.92c-2.231-2.177-3.072-3.282-4.101-3.958
		c-26.92-17.684-53.799-35.463-80.816-52.914c-16.627-10.74-33.599-20.679-50.151-31.584c-5.848-3.851-10.593-4.25-16.511-0.181
		c-20.888,14.37-41.924,28.434-63.125,42.095c-21.297,13.721-42.868,26.8-64.291,40.229c-2.361,1.477-4.542,3.389-8.41,6.313
		C518.835,150.92,613.333,150.92,709.509,150.92z"/>
</g>
<path fill-rule="evenodd" clip-rule="evenodd" d="M195.145,477.925C67.843,478.273-16.278,346.558,40.344,232.296
	c33.457-67.513,71.164-132.983,108.505-198.494c23.475-41.185,71.002-40.682,94.53,0.946
	c36.692,64.927,73.837,129.763,106.669,196.657C405.981,345.369,321.789,477.578,195.145,477.925z M195.813,167.974
	c-22.105,39.151-42.232,72.824-60.378,107.536c-15.518,29.684-7.394,64.031,17.322,83.402c24.611,19.29,58.43,19.376,83.332,0.206
	c25.221-19.411,34.495-53.646,19.568-83.055C237.874,241.027,217.685,207.211,195.813,167.974z"/>
</svg>
